<svg width="91.000000" height="35.000000" viewBox="0 0 91 35" fill="none" xmlns="http://www.w3.org/2000/svg" xmlns:xlink="http://www.w3.org/1999/xlink">
	<desc>
			Created with Pixso.
	</desc>
	<defs>
		<clipPath id="clip39_6">
			<rect id="Logo" rx="0.000000" width="90.000000" height="34.000000" transform="translate(0.500000 0.500000)" fill="white" fill-opacity="0"/>
		</clipPath>
	</defs>
	<rect id="Logo" rx="0.000000" width="90.000000" height="34.000000" transform="translate(0.500000 0.500000)" fill="#FFFFFF" fill-opacity="0"/>
	<g clip-path="url(#clip39_6)">
		<path id="Vector" d="M21.6 0C18.04 0 14.63 1.41 12.12 3.92L3.92 12.12C1.41 14.63 0 18.04 0 21.6C0 29 5.99 35 13.39 35C16.95 35 20.36 33.58 22.87 31.07L28.54 25.4L45.07 8.87C46.27 7.67 47.9 7 49.6 7C52.44 7 54.85 8.85 55.68 11.41L60.9 6.19C58.52 2.47 54.35 0 49.6 0C46.04 0 42.63 1.41 40.12 3.92L17.92 26.12C16.72 27.32 15.09 28 13.39 28C9.86 28 7 25.13 7 21.6C7 19.9 7.67 18.27 8.87 17.07L17.07 8.87C18.27 7.67 19.9 7 21.6 7C24.44 7 26.85 8.85 27.68 11.41L32.9 6.19C30.52 2.47 26.35 0 21.6 0Z" fill="#394149" fill-opacity="1.000000" fill-rule="nonzero"/>
		<path id="Vector" d="M45.92 26.12C44.72 27.32 43.09 28 41.39 28C38.55 28 36.14 26.14 35.31 23.58L30.09 28.8C32.47 32.52 36.64 35 41.39 35C44.95 35 48.36 33.58 50.87 31.07L73.07 8.87C74.27 7.67 75.9 7 77.6 7C81.13 7 84 9.86 84 13.39C84 15.09 83.32 16.72 82.12 17.92L73.92 26.12C72.72 27.32 71.09 28 69.39 28C66.55 28 64.14 26.14 63.31 23.58L58.09 28.8C60.47 32.52 64.64 35 69.39 35C72.95 35 76.36 33.58 78.87 31.07L87.07 22.87C89.58 20.36 91 16.95 91 13.39C91 5.99 85 0 77.6 0C74.04 0 70.63 1.41 68.12 3.92L45.92 26.12Z" fill="#394149" fill-opacity="1.000000" fill-rule="nonzero"/>
	</g>
</svg>
