<svg width="214.488647" height="70.000000" viewBox="0 0 214.489 70" fill="none" xmlns="http://www.w3.org/2000/svg" xmlns:xlink="http://www.w3.org/1999/xlink">
	<rect id="Logo" rx="34.500000" width="213.488647" height="69.000000" transform="translate(0.500000 0.500000)" fill="#FFFFFF" fill-opacity="1.000000"/>
	<g clip-path="url(#clip59_535)">
		<path id="Vector" d="M83.23 43.45C82.55 43.49 81.88 43.29 81.32 42.9C81.09 42.73 80.9 42.5 80.78 42.24C80.65 41.98 80.59 41.69 80.6 41.4L80.6 30.81C80.6 30.76 80.6 30.72 80.61 30.68C80.63 30.63 80.65 30.59 80.69 30.56C80.72 30.53 80.76 30.51 80.8 30.49C80.84 30.48 80.89 30.47 80.93 30.48L82.85 30.48C83.07 30.48 83.17 30.59 83.17 30.81L83.17 40.58C83.17 41.01 83.37 41.23 83.77 41.23C83.94 41.24 84.11 41.22 84.27 41.17C84.5 41.17 84.62 41.24 84.64 41.45L84.81 42.88C84.81 42.92 84.81 42.96 84.8 43C84.79 43.04 84.78 43.08 84.75 43.12C84.72 43.15 84.69 43.18 84.65 43.2C84.62 43.22 84.57 43.23 84.53 43.23C84.11 43.37 83.67 43.44 83.23 43.45Z" fill="#252525" fill-opacity="1.000000" fill-rule="nonzero"/>
		<path id="Vector" d="M94.03 42.23C93.06 43.02 91.85 43.46 90.6 43.46C89.35 43.46 88.14 43.02 87.17 42.23C86.32 41.37 85.85 40.21 85.85 39.01C85.85 37.8 86.32 36.65 87.17 35.79C88.14 35 89.35 34.57 90.6 34.57C91.85 34.57 93.06 35 94.03 35.79C94.86 36.66 95.32 37.81 95.32 39C95.32 40.2 94.86 41.35 94.03 42.21L94.03 42.23ZM88.98 40.72C89.43 41.12 90.01 41.35 90.61 41.35C91.22 41.35 91.8 41.12 92.25 40.72C92.65 40.25 92.87 39.66 92.87 39.04C92.87 38.42 92.65 37.82 92.25 37.36C91.8 36.95 91.22 36.73 90.61 36.73C90.01 36.73 89.43 36.95 88.98 37.36C88.57 37.82 88.35 38.42 88.35 39.04C88.35 39.66 88.57 40.25 88.98 40.72Z" fill="#252525" fill-opacity="1.000000" fill-rule="nonzero"/>
		<path id="Vector" d="M105.89 34.85C106.11 34.85 106.21 34.97 106.21 35.19L106.21 43.38C106.23 43.93 106.13 44.48 105.91 44.99C105.69 45.5 105.36 45.95 104.94 46.32C104.02 47.11 102.83 47.51 101.62 47.46C100.52 47.5 99.44 47.2 98.52 46.6C98.13 46.35 97.79 46.01 97.53 45.62C97.28 45.22 97.1 44.78 97.02 44.32C97.02 44.09 97.02 43.99 97.33 43.99L99.25 43.99C99.33 43.99 99.41 44.02 99.48 44.06C99.55 44.11 99.6 44.17 99.63 44.25C99.75 44.6 100 44.89 100.33 45.06C100.72 45.26 101.16 45.37 101.61 45.36C101.88 45.37 102.14 45.33 102.4 45.24C102.65 45.15 102.88 45.01 103.08 44.83C103.26 44.64 103.4 44.42 103.5 44.17C103.59 43.93 103.63 43.67 103.62 43.4L103.62 42.68C102.93 43.19 102.09 43.45 101.24 43.43C100.64 43.45 100.05 43.35 99.49 43.13C98.93 42.92 98.42 42.6 98 42.18C97.17 41.33 96.71 40.19 96.71 39C96.71 37.82 97.17 36.68 98 35.83C98.43 35.41 98.94 35.09 99.49 34.88C100.05 34.67 100.65 34.57 101.24 34.59C102.12 34.57 102.98 34.85 103.68 35.38L103.68 35.2C103.67 35.15 103.67 35.11 103.69 35.07C103.7 35.03 103.73 34.99 103.76 34.96C103.79 34.92 103.82 34.9 103.87 34.88C103.91 34.87 103.95 34.86 104 34.87L105.89 34.85ZM101.46 41.39C101.75 41.4 102.05 41.35 102.32 41.23C102.59 41.11 102.83 40.94 103.02 40.72C103.4 40.23 103.61 39.62 103.61 39C103.61 38.38 103.4 37.78 103.02 37.29C102.83 37.07 102.59 36.9 102.32 36.79C102.05 36.67 101.76 36.62 101.47 36.63C101.17 36.62 100.88 36.67 100.6 36.79C100.33 36.91 100.08 37.08 99.88 37.3C99.46 37.77 99.24 38.38 99.26 39.01C99.24 39.64 99.46 40.25 99.87 40.72C100.07 40.94 100.32 41.11 100.59 41.23C100.86 41.34 101.16 41.4 101.46 41.39Z" fill="#252525" fill-opacity="1.000000" fill-rule="nonzero"/>
		<path id="Vector" d="M116.08 42.23C115.11 43.02 113.9 43.45 112.65 43.45C111.4 43.45 110.19 43.02 109.22 42.23C108.39 41.36 107.93 40.21 107.93 39.01C107.93 37.81 108.39 36.66 109.22 35.79C110.19 35 111.4 34.57 112.65 34.57C113.9 34.57 115.11 35 116.08 35.79C116.9 36.66 117.37 37.81 117.37 39C117.37 40.2 116.9 41.35 116.08 42.21L116.08 42.23ZM111.01 40.72C111.23 40.93 111.49 41.09 111.77 41.2C112.06 41.3 112.36 41.36 112.66 41.35C112.96 41.35 113.26 41.3 113.54 41.19C113.82 41.09 114.07 40.92 114.29 40.72C114.69 40.25 114.91 39.65 114.91 39.04C114.91 38.42 114.69 37.83 114.29 37.36C114.07 37.15 113.82 36.99 113.54 36.88C113.26 36.77 112.96 36.72 112.66 36.73C112.36 36.72 112.06 36.77 111.77 36.88C111.49 36.99 111.23 37.15 111.01 37.36C110.61 37.83 110.4 38.42 110.4 39.04C110.4 39.65 110.61 40.25 111.01 40.72Z" fill="#252525" fill-opacity="1.000000" fill-rule="nonzero"/>
		<path id="Vector" d="M121.49 32.91C121.19 33.18 120.8 33.32 120.4 33.32C120 33.32 119.61 33.18 119.31 32.91C119.17 32.78 119.06 32.63 118.99 32.45C118.91 32.28 118.88 32.09 118.88 31.91C118.88 31.72 118.91 31.53 118.99 31.36C119.06 31.19 119.17 31.03 119.31 30.9C119.62 30.64 120 30.5 120.4 30.5C120.8 30.5 121.19 30.64 121.49 30.9C121.63 31.03 121.74 31.19 121.81 31.36C121.89 31.53 121.93 31.72 121.93 31.91C121.93 32.09 121.89 32.28 121.81 32.45C121.74 32.63 121.63 32.78 121.49 32.91ZM121.73 43.45C121.05 43.48 120.38 43.29 119.82 42.9C119.6 42.73 119.41 42.5 119.29 42.24C119.16 41.98 119.11 41.69 119.12 41.4L119.12 35.19C119.11 35.14 119.11 35.1 119.13 35.05C119.14 35.01 119.17 34.97 119.2 34.94C119.23 34.91 119.27 34.88 119.31 34.87C119.36 34.85 119.4 34.85 119.45 34.85L121.37 34.85C121.58 34.85 121.69 34.97 121.69 35.19L121.69 40.58C121.69 41.01 121.88 41.23 122.27 41.23C122.44 41.24 122.62 41.22 122.78 41.17C123.01 41.17 123.14 41.24 123.15 41.45L123.32 42.88C123.33 42.92 123.33 42.96 123.32 43C123.31 43.04 123.29 43.08 123.26 43.12C123.24 43.15 123.21 43.18 123.17 43.2C123.13 43.22 123.09 43.23 123.05 43.23C122.62 43.37 122.18 43.45 121.73 43.45Z" fill="#252525" fill-opacity="1.000000" fill-rule="nonzero"/>
		<path id="Vector" d="M130.38 34.58C130.98 34.56 131.58 34.65 132.14 34.87C132.71 35.08 133.22 35.4 133.65 35.81C134.46 36.68 134.91 37.82 134.91 39.01C134.91 40.19 134.46 41.34 133.65 42.2C133.22 42.62 132.71 42.95 132.14 43.16C131.58 43.38 130.98 43.47 130.38 43.45C129.53 43.47 128.69 43.21 128 42.71L128 46.83C128 47.05 127.88 47.15 127.66 47.15L125.74 47.15C125.7 47.16 125.66 47.16 125.61 47.14C125.57 47.13 125.53 47.11 125.5 47.08C125.47 47.04 125.44 47.01 125.43 46.96C125.42 46.92 125.42 46.88 125.42 46.83L125.42 37.46C125.44 37.37 125.43 37.28 125.4 37.19C125.37 37.1 125.32 37.02 125.26 36.95C125.19 36.89 125.11 36.84 125.02 36.81C124.93 36.78 124.84 36.77 124.75 36.79L124.37 36.79C124.12 36.79 124 36.69 124 36.51L124 35.16C123.99 35.08 124.01 35 124.06 34.93C124.11 34.86 124.18 34.81 124.26 34.79C124.65 34.64 125.07 34.57 125.49 34.58C125.91 34.54 126.33 34.63 126.7 34.84C127.07 35.04 127.37 35.35 127.56 35.72C127.93 35.35 128.37 35.06 128.85 34.86C129.34 34.66 129.86 34.57 130.38 34.58ZM128.6 40.72C128.8 40.93 129.05 41.1 129.32 41.22C129.59 41.33 129.88 41.39 130.18 41.39C130.47 41.39 130.76 41.33 131.03 41.22C131.31 41.1 131.55 40.93 131.75 40.72C132.18 40.24 132.41 39.61 132.38 38.97C132.41 38.33 132.19 37.7 131.75 37.22C131.55 37.01 131.31 36.84 131.03 36.72C130.76 36.61 130.47 36.55 130.18 36.55C129.88 36.55 129.59 36.61 129.32 36.72C129.05 36.84 128.8 37.01 128.6 37.22C128.19 37.71 127.97 38.33 128 38.97C127.97 39.61 128.19 40.23 128.6 40.72Z" fill="#252525" fill-opacity="1.000000" fill-rule="nonzero"/>
		<path id="Vector" d="M140.3 43.45C139.28 43.49 138.26 43.25 137.37 42.74C137.01 42.52 136.7 42.23 136.47 41.88C136.24 41.53 136.1 41.13 136.04 40.72C136.04 40.49 136.12 40.37 136.37 40.37L138.05 40.37C138.13 40.38 138.21 40.4 138.28 40.45C138.34 40.49 138.4 40.55 138.43 40.63C138.67 41.24 139.3 41.55 140.3 41.55C140.65 41.57 141 41.5 141.32 41.35C141.43 41.3 141.52 41.22 141.59 41.12C141.66 41.02 141.7 40.91 141.71 40.79C141.71 40.49 141.53 40.28 141.16 40.15C140.73 40 140.28 39.91 139.82 39.86C139.28 39.8 138.75 39.7 138.22 39.57C137.71 39.46 137.25 39.19 136.89 38.81C136.67 38.55 136.52 38.25 136.43 37.92C136.34 37.6 136.32 37.26 136.36 36.93C136.41 36.6 136.52 36.28 136.7 35.99C136.87 35.71 137.1 35.46 137.38 35.27C138.2 34.74 139.17 34.49 140.14 34.53C141.09 34.5 142.02 34.74 142.84 35.21C143.17 35.4 143.45 35.65 143.67 35.96C143.89 36.27 144.03 36.63 144.1 37C144.1 37.23 144 37.35 143.79 37.35L142.1 37.35C142.03 37.35 141.96 37.33 141.89 37.3C141.83 37.26 141.78 37.21 141.75 37.14C141.64 36.87 141.43 36.65 141.16 36.53C140.86 36.38 140.52 36.3 140.18 36.31C139.84 36.29 139.51 36.36 139.21 36.5C139.1 36.54 139.01 36.61 138.94 36.71C138.88 36.8 138.84 36.91 138.84 37.03C138.85 37.18 138.91 37.33 139 37.45C139.1 37.58 139.24 37.66 139.39 37.7C139.83 37.87 140.28 37.98 140.75 38.04C141.28 38.11 141.81 38.21 142.34 38.34C142.85 38.46 143.32 38.72 143.67 39.11C143.87 39.32 144.02 39.56 144.11 39.83C144.21 40.1 144.25 40.39 144.24 40.67C144.25 41.07 144.15 41.46 143.97 41.81C143.78 42.15 143.51 42.45 143.17 42.66C142.32 43.21 141.32 43.48 140.3 43.45Z" fill="#252525" fill-opacity="1.000000" fill-rule="nonzero"/>
		<path id="Vector" d="M156.32 42.88C156.32 42.92 156.32 42.96 156.31 43C156.3 43.04 156.28 43.08 156.26 43.11C156.23 43.14 156.2 43.17 156.17 43.19C156.13 43.21 156.09 43.23 156.05 43.23C155.64 43.37 155.2 43.44 154.76 43.45C154.33 43.49 153.89 43.43 153.49 43.25C153.09 43.08 152.74 42.8 152.48 42.45C151.67 43.15 150.62 43.51 149.56 43.45C149.07 43.47 148.57 43.39 148.11 43.21C147.65 43.03 147.24 42.76 146.89 42.41C146.54 42.04 146.27 41.61 146.1 41.14C145.92 40.66 145.85 40.16 145.87 39.65L145.87 35.19C145.87 34.97 145.97 34.85 146.19 34.85L148.11 34.85C148.33 34.85 148.43 34.97 148.43 35.19L148.43 39.31C148.41 39.83 148.58 40.33 148.92 40.72C149.09 40.9 149.29 41.04 149.52 41.13C149.75 41.22 149.99 41.26 150.24 41.25C150.49 41.27 150.74 41.23 150.97 41.14C151.21 41.05 151.42 40.92 151.61 40.75C151.78 40.57 151.92 40.36 152 40.13C152.09 39.89 152.13 39.64 152.12 39.39L152.12 35.19C152.12 34.97 152.22 34.85 152.44 34.85L154.38 34.85C154.6 34.85 154.7 34.97 154.7 35.19L154.7 40.57C154.7 41.01 154.9 41.23 155.28 41.23C155.45 41.24 155.63 41.22 155.8 41.17C155.84 41.16 155.89 41.16 155.93 41.17C155.98 41.18 156.02 41.19 156.06 41.22C156.09 41.25 156.12 41.28 156.14 41.32C156.16 41.36 156.18 41.4 156.18 41.45L156.32 42.88Z" fill="#252525" fill-opacity="1.000000" fill-rule="nonzero"/>
		<path id="Vector" d="M174.48 42.88C174.49 42.92 174.49 42.96 174.48 43C174.47 43.04 174.45 43.08 174.43 43.12C174.4 43.15 174.37 43.18 174.33 43.2C174.3 43.22 174.25 43.23 174.21 43.23C173.79 43.37 173.35 43.44 172.9 43.45C172.22 43.48 171.55 43.29 170.99 42.9C170.75 42.73 170.55 42.51 170.42 42.25C170.29 41.99 170.22 41.7 170.22 41.4L170.22 38.72C170.25 38.21 170.08 37.7 169.74 37.31C169.58 37.13 169.39 36.99 169.16 36.9C168.94 36.81 168.7 36.76 168.46 36.77C168.25 36.77 168.03 36.81 167.83 36.89C167.64 36.98 167.46 37.11 167.32 37.28C167.02 37.66 166.87 38.14 166.89 38.63L166.89 42.84C166.89 43.06 166.78 43.17 166.57 43.17L164.64 43.17C164.59 43.18 164.55 43.18 164.5 43.16C164.46 43.15 164.42 43.12 164.39 43.09C164.36 43.06 164.33 43.02 164.32 42.98C164.3 42.93 164.3 42.89 164.3 42.84L164.3 38.72C164.33 38.21 164.17 37.71 163.86 37.31C163.72 37.14 163.54 37.01 163.35 36.92C163.15 36.82 162.93 36.77 162.72 36.77C162.48 36.77 162.25 36.81 162.03 36.89C161.82 36.98 161.62 37.11 161.46 37.28C161.13 37.65 160.96 38.13 160.99 38.63L160.99 42.84C161 42.89 160.99 42.93 160.98 42.98C160.96 43.02 160.94 43.06 160.91 43.09C160.87 43.12 160.83 43.15 160.79 43.16C160.75 43.18 160.7 43.18 160.66 43.17L158.8 43.17C158.58 43.17 158.48 43.06 158.48 42.84L158.48 37.46C158.49 37.37 158.48 37.28 158.45 37.19C158.42 37.1 158.37 37.02 158.31 36.95C158.24 36.89 158.16 36.84 158.07 36.81C157.99 36.78 157.89 36.77 157.8 36.79L157.42 36.79C157.17 36.79 157.05 36.69 157.05 36.51L157.05 35.16C157.04 35.08 157.06 35 157.11 34.93C157.16 34.86 157.23 34.81 157.31 34.79C157.71 34.64 158.12 34.57 158.54 34.58C158.95 34.55 159.35 34.63 159.71 34.81C160.07 35 160.37 35.28 160.58 35.63C160.96 35.27 161.42 34.98 161.92 34.8C162.42 34.62 162.95 34.55 163.48 34.58C164 34.56 164.51 34.65 164.98 34.86C165.45 35.07 165.87 35.39 166.19 35.79C166.57 35.38 167.03 35.06 167.55 34.85C168.07 34.64 168.63 34.55 169.18 34.58C169.68 34.56 170.18 34.64 170.65 34.82C171.11 35 171.54 35.27 171.89 35.62C172.24 35.99 172.51 36.42 172.68 36.89C172.86 37.37 172.94 37.87 172.91 38.37L172.91 40.58C172.91 41.01 173.1 41.23 173.47 41.23C173.65 41.24 173.82 41.22 174 41.17C174.23 41.17 174.36 41.27 174.37 41.45L174.48 42.88Z" fill="#252525" fill-opacity="1.000000" fill-rule="nonzero"/>
		<path id="Vector" d="M40.46 33.37C41.31 29.98 43.26 26.97 46.01 24.82C48.76 22.67 52.15 21.5 55.65 21.5C59.14 21.5 62.53 22.67 65.28 24.82C68.03 26.97 69.99 29.98 70.83 33.37L69.46 33.37C67.14 33.34 64.88 34.03 62.98 35.35C62.87 35.43 62.75 35.5 62.64 35.56L62.48 35.56C62.36 35.5 62.24 35.43 62.13 35.35C60.21 34.06 57.96 33.37 55.65 33.37C53.34 33.37 51.08 34.06 49.16 35.35C49.05 35.43 48.94 35.5 48.82 35.56L48.66 35.56C48.54 35.5 48.42 35.43 48.32 35.35C46.41 34.03 44.15 33.34 41.84 33.37L40.46 33.37ZM66.99 40.53C67.69 39.99 68.57 39.7 69.46 39.72L71.3 39.72L71.3 36.05L69.46 36.05C67.89 36.04 66.35 36.52 65.08 37.45C64.37 37.98 63.5 38.26 62.61 38.26C61.72 38.26 60.86 37.98 60.14 37.45C58.84 36.54 57.29 36.06 55.7 36.06C54.12 36.06 52.57 36.54 51.26 37.45C50.55 37.98 49.68 38.26 48.8 38.26C47.91 38.26 47.04 37.98 46.33 37.45C45.04 36.51 43.48 36.02 41.89 36.05L40 36.05L40 39.72L41.84 39.72C42.73 39.7 43.6 39.99 44.3 40.53C45.6 41.44 47.15 41.93 48.74 41.93C50.32 41.93 51.87 41.44 53.17 40.53C53.88 39.99 54.75 39.7 55.64 39.72C56.53 39.7 57.41 39.98 58.11 40.53C59.41 41.44 60.96 41.93 62.55 41.93C64.14 41.93 65.69 41.44 66.99 40.53ZM66.99 47.09C67.69 46.55 68.57 46.26 69.46 46.28L71.3 46.28L71.3 42.61L69.46 42.61C67.89 42.6 66.35 43.08 65.08 44.01C64.37 44.54 63.5 44.82 62.61 44.82C61.72 44.82 60.86 44.54 60.14 44.01C58.84 43.1 57.29 42.62 55.7 42.62C54.12 42.62 52.57 43.1 51.26 44.01C50.55 44.54 49.68 44.82 48.8 44.82C47.91 44.82 47.04 44.54 46.33 44.01C45.04 43.07 43.48 42.58 41.89 42.61L40 42.61L40 46.28L41.84 46.28C42.73 46.26 43.6 46.55 44.3 47.09C45.6 48 47.15 48.49 48.74 48.49C50.32 48.49 51.87 48 53.17 47.09C53.88 46.55 54.75 46.26 55.64 46.28C56.53 46.26 57.41 46.54 58.11 47.09C59.41 48 60.96 48.49 62.55 48.49C64.14 48.49 65.69 48 66.99 47.09Z" fill="#252525" fill-opacity="1.000000" fill-rule="nonzero"/>
	</g>
</svg>
