<svg width="224.821533" height="70.000000" viewBox="0 0 224.822 70" fill="none" xmlns="http://www.w3.org/2000/svg" xmlns:xlink="http://www.w3.org/1999/xlink">
	<rect id="Logo" rx="34.500000" width="223.821533" height="69.000000" transform="translate(0.500000 0.500000)" fill="#FFFFFF" fill-opacity="1.000000"/>
	<g clip-path="url(#clip59_562)">
		<path id="Vector" d="M81.13 28.44L84.8 28.44L84.8 43.29L81.13 43.29L81.13 28.44ZM86.26 37.7C86.26 34.02 88.54 31.82 91.97 31.82C95.4 31.82 97.69 34.02 97.69 37.7C97.69 41.38 95.48 43.61 91.97 43.61C88.46 43.61 86.26 41.46 86.26 37.7ZM94.05 37.7C94.05 35.68 93.26 34.49 92.01 34.49C90.75 34.49 89.97 35.64 89.97 37.7C89.97 39.77 90.75 40.9 92.01 40.9C93.26 40.9 94.08 39.77 94.08 37.72L94.05 37.7ZM99.15 44.06L102.69 44.06C102.85 44.44 103.14 44.76 103.49 44.96C103.85 45.17 104.27 45.25 104.68 45.2C106.09 45.2 106.82 44.45 106.82 43.33L106.82 41.27L106.83 41.27C106.53 41.91 106.04 42.44 105.43 42.8C104.81 43.16 104.11 43.32 103.4 43.27C100.72 43.27 98.93 41.22 98.93 37.7C98.93 34.18 100.64 31.99 103.5 31.99C104.23 31.95 104.95 32.14 105.56 32.52C106.18 32.91 106.65 33.48 106.93 34.15L106.83 34.15L106.83 32.08L110.46 32.08L110.46 43.21C110.46 45.9 108.09 47.58 104.59 47.58C101.41 47.57 99.38 46.12 99.17 44.07L99.15 44.06ZM106.83 37.7C106.83 35.91 106.01 34.78 104.7 34.78C103.4 34.78 102.6 35.92 102.6 37.7C102.6 39.49 103.39 40.54 104.7 40.54C106.02 40.54 106.83 39.57 106.83 37.7ZM111.92 37.7C111.92 34.02 114.2 31.82 117.63 31.82C121.06 31.82 123.34 34.02 123.34 37.7C123.34 41.38 121.13 43.61 117.63 43.61C114.13 43.61 111.94 41.46 111.94 37.7L111.92 37.7ZM119.71 37.7C119.71 35.68 118.91 34.49 117.66 34.49C116.42 34.49 115.63 35.64 115.63 37.7C115.63 39.77 116.41 40.9 117.66 40.9C118.92 40.9 119.73 39.77 119.73 37.72L119.71 37.7ZM124.83 29.37C124.81 29 124.91 28.63 125.11 28.31C125.3 27.99 125.59 27.74 125.93 27.59C126.27 27.43 126.65 27.38 127.02 27.45C127.39 27.51 127.73 27.68 128 27.94C128.27 28.2 128.46 28.53 128.53 28.9C128.61 29.26 128.58 29.64 128.44 29.99C128.3 30.34 128.06 30.63 127.75 30.84C127.44 31.05 127.08 31.17 126.7 31.17C126.47 31.17 126.23 31.13 126 31.04C125.78 30.96 125.58 30.83 125.41 30.66C125.23 30.5 125.1 30.3 125 30.08C124.91 29.86 124.86 29.62 124.85 29.38L124.83 29.37ZM124.83 32.07L128.54 32.07L128.54 43.34L124.89 43.34L124.83 32.07ZM141.9 37.7C141.9 41.37 140.26 43.5 137.46 43.5C136.74 43.54 136.03 43.37 135.42 42.99C134.8 42.62 134.32 42.06 134.03 41.41L133.96 41.41L133.96 46.96L130.29 46.96L130.29 32.1L133.94 32.1L133.94 34.12L134.01 34.12C134.28 33.44 134.76 32.88 135.38 32.49C135.99 32.1 136.71 31.91 137.44 31.94C140.32 31.92 141.97 34.04 141.97 37.72L141.9 37.7ZM138.17 37.7C138.17 35.92 137.33 34.77 136.04 34.77C134.75 34.77 133.94 35.91 133.93 37.7C133.92 39.5 134.75 40.63 136.04 40.63C137.33 40.63 138.24 39.57 138.24 37.72L138.17 37.7ZM148.17 31.81C151.24 31.81 153.15 33.26 153.17 35.59L149.82 35.59C149.82 34.78 149.15 34.28 148.14 34.28C147.14 34.28 146.66 34.66 146.66 35.25C146.66 35.83 147.08 36.01 147.93 36.18L150.28 36.66C152.57 37.14 153.48 38.06 153.48 39.76C153.48 42.05 151.37 43.6 148.22 43.6C145.08 43.6 143.03 42.09 142.89 39.8L146.44 39.8C146.54 40.63 147.21 41.12 148.28 41.12C149.36 41.12 149.86 40.78 149.86 40.17C149.86 39.57 149.52 39.46 148.64 39.28L146.51 38.84C144.3 38.37 143.15 37.21 143.15 35.49C143.22 33.25 145.14 31.82 148.24 31.82L148.17 31.81ZM165.77 43.33L162.21 43.33L162.21 41.21L162.14 41.21C161.95 41.92 161.51 42.53 160.92 42.96C160.32 43.39 159.6 43.6 158.86 43.56C158.31 43.57 157.76 43.47 157.25 43.26C156.74 43.06 156.28 42.74 155.9 42.34C155.52 41.94 155.22 41.46 155.04 40.94C154.86 40.42 154.78 39.87 154.83 39.32L154.83 32.08L158.5 32.08L158.5 38.53C158.5 39.85 159.2 40.57 160.34 40.57C160.61 40.57 160.87 40.51 161.11 40.4C161.36 40.28 161.57 40.12 161.75 39.92C161.92 39.71 162.05 39.48 162.13 39.22C162.2 38.96 162.22 38.69 162.18 38.42L162.18 32.08L165.84 32.08L165.77 43.33ZM167.54 32.07L171.1 32.07L171.1 34.24L171.18 34.24C171.38 33.55 171.8 32.93 172.38 32.5C172.97 32.07 173.67 31.85 174.4 31.86C175.12 31.8 175.84 32.01 176.42 32.45C177 32.89 177.4 33.54 177.53 34.25L177.69 34.25C177.92 33.53 178.37 32.91 179 32.48C179.61 32.04 180.36 31.83 181.12 31.86C181.62 31.84 182.12 31.93 182.58 32.12C183.05 32.31 183.47 32.59 183.82 32.95C184.17 33.31 184.43 33.74 184.6 34.22C184.78 34.69 184.84 35.19 184.81 35.69L184.81 43.34L181.12 43.34L181.12 36.63C181.12 35.49 180.58 34.85 179.54 34.85C179.31 34.84 179.08 34.89 178.87 34.98C178.66 35.07 178.47 35.21 178.32 35.38C178.16 35.56 178.05 35.76 177.98 35.98C177.91 36.2 177.9 36.44 177.93 36.66L177.93 43.34L174.43 43.34L174.43 36.6C174.43 35.45 173.87 34.85 172.86 34.85C172.63 34.84 172.4 34.89 172.19 34.99C171.97 35.08 171.78 35.22 171.63 35.4C171.47 35.57 171.36 35.78 171.29 36C171.22 36.22 171.2 36.46 171.23 36.69L171.23 43.34L167.56 43.34L167.54 32.07Z" fill="#252525" fill-opacity="1.000000" fill-rule="nonzero"/>
		<path id="Vector" d="M73.87 29.41C73.87 27.13 73.18 24.91 71.9 23.03C70.61 21.16 68.79 19.71 66.67 18.88C64.55 18.06 62.23 17.89 60.02 18.41C57.8 18.92 55.8 20.1 54.26 21.77L40 21.77L40 51.88L70.11 51.88L70.11 37.81C71.29 36.75 72.24 35.46 72.88 34.01C73.53 32.56 73.87 30.99 73.87 29.41ZM68.08 29.41C68.08 30.5 67.76 31.56 67.15 32.47C66.55 33.38 65.69 34.09 64.68 34.5C63.68 34.92 62.57 35.03 61.5 34.82C60.43 34.61 59.45 34.09 58.68 33.32C57.9 32.55 57.38 31.57 57.16 30.5C56.95 29.43 57.06 28.32 57.48 27.31C57.89 26.31 58.6 25.44 59.5 24.84C60.41 24.23 61.48 23.91 62.57 23.91C64.03 23.91 65.42 24.49 66.46 25.52C67.49 26.55 68.07 27.95 68.08 29.41ZM64.32 46.08L45.79 46.08L45.79 27.57L51.44 27.57C51.33 28.17 51.27 28.79 51.26 29.41C51.27 32.4 52.46 35.28 54.58 37.4C56.7 39.51 59.57 40.71 62.57 40.71C63.15 40.71 63.74 40.66 64.32 40.56L64.32 46.08Z" fill="#252525" fill-opacity="1.000000" fill-rule="nonzero"/>
	</g>
</svg>
