<svg width="231.861343" height="70.000000" viewBox="0 0 231.861 70" fill="none" xmlns="http://www.w3.org/2000/svg" xmlns:xlink="http://www.w3.org/1999/xlink">
	<rect id="Logo" rx="34.500000" width="230.861359" height="69.000000" transform="translate(0.500000 0.500000)" fill="#FFFFFF" fill-opacity="1.000000"/>
	<g clip-path="url(#clip59_529)">
		<path id="Vector" d="M40 52.1L74.19 52.1L74.19 17.9L40 17.9L40 52.1ZM67.61 31.7L60.39 31.7L60.39 24.48L67.61 24.48L67.61 31.7ZM46.58 24.48L53.81 24.48L53.81 38.29L67.61 38.29L67.61 45.51L46.58 45.51L46.58 24.48ZM96.47 17.9C93.08 17.9 89.78 18.9 86.97 20.78C84.15 22.66 81.96 25.33 80.67 28.45C79.37 31.58 79.03 35.01 79.69 38.33C80.35 41.65 81.98 44.7 84.37 47.09C86.77 49.48 89.81 51.11 93.13 51.77C96.45 52.43 99.88 52.09 103.01 50.79C106.13 49.5 108.81 47.31 110.68 44.5C112.56 41.68 113.57 38.38 113.57 35C113.56 30.46 111.76 26.12 108.55 22.91C105.35 19.7 101 17.9 96.47 17.9ZM96.47 45.51C94.39 45.51 92.35 44.9 90.62 43.74C88.89 42.58 87.54 40.94 86.75 39.02C85.95 37.1 85.74 34.98 86.15 32.94C86.56 30.9 87.56 29.03 89.03 27.56C90.5 26.09 92.37 25.09 94.41 24.68C96.45 24.27 98.57 24.48 100.49 25.28C102.41 26.07 104.06 27.42 105.21 29.15C106.37 30.88 106.98 32.91 106.98 35C106.98 37.78 105.87 40.46 103.9 42.43C101.93 44.4 99.25 45.51 96.47 45.51ZM174.76 17.9C171.38 17.89 168.07 18.9 165.26 20.78C162.45 22.66 160.25 25.33 158.96 28.45C157.66 31.57 157.33 35.01 157.99 38.33C158.64 41.65 160.27 44.69 162.66 47.09C165.06 49.48 168.1 51.11 171.42 51.77C174.74 52.43 178.18 52.09 181.3 50.79C184.42 49.5 187.1 47.31 188.97 44.5C190.85 41.68 191.86 38.38 191.86 35C191.85 30.46 190.05 26.12 186.84 22.91C183.64 19.7 179.29 17.9 174.76 17.9ZM174.76 45.51C172.68 45.51 170.64 44.9 168.91 43.74C167.19 42.59 165.84 40.94 165.04 39.02C164.24 37.1 164.04 34.98 164.44 32.94C164.85 30.9 165.85 29.03 167.32 27.56C168.79 26.09 170.66 25.09 172.7 24.68C174.74 24.27 176.86 24.48 178.78 25.28C180.7 26.07 182.35 27.42 183.5 29.15C184.66 30.88 185.27 32.91 185.27 35C185.27 37.78 184.16 40.46 182.19 42.43C180.22 44.4 177.55 45.51 174.76 45.51ZM135.61 17.9C132.23 17.9 128.92 18.9 126.11 20.78C123.3 22.66 121.11 25.33 119.81 28.45C118.52 31.58 118.18 35.01 118.84 38.33C119.5 41.65 121.13 44.7 123.52 47.09C125.91 49.48 128.96 51.11 132.28 51.77C135.59 52.43 139.03 52.09 142.16 50.79C145.28 49.5 147.95 47.31 149.83 44.5C151.71 41.68 152.71 38.38 152.71 35C152.71 30.46 150.9 26.12 147.7 22.91C144.49 19.7 140.14 17.9 135.61 17.9ZM135.61 45.51C133.67 45.51 131.77 44.98 130.12 43.97C128.47 42.96 127.12 41.51 126.24 39.78C125.36 38.06 124.97 36.12 125.12 34.19C125.27 32.26 125.95 30.4 127.08 28.83C128.22 27.26 129.77 26.04 131.55 25.29C133.34 24.54 135.3 24.3 137.22 24.6C139.13 24.9 140.93 25.72 142.41 26.97C143.89 28.23 144.99 29.86 145.6 31.7L135.61 31.7L135.61 38.29L145.6 38.29C144.9 40.39 143.56 42.21 141.77 43.51C139.98 44.81 137.82 45.51 135.61 45.51Z" fill="#252525" fill-opacity="1.000000" fill-rule="nonzero"/>
	</g>
</svg>
