<svg width="164.097412" height="70.000000" viewBox="0 0 164.097 70" fill="none" xmlns="http://www.w3.org/2000/svg" xmlns:xlink="http://www.w3.org/1999/xlink">
	<rect id="Logo" rx="34.500000" width="163.097412" height="69.000000" transform="translate(0.500000 0.500000)" fill="#FFFFFF" fill-opacity="1.000000"/>
	<g clip-path="url(#clip59_547)">
		<path id="Vector" d="M40 39.01L42.51 39.01L42.51 51.36L40 51.36L40 39.01Z" fill="#252525" fill-opacity="1.000000" fill-rule="nonzero"/>
		<path id="Vector" d="M43.97 47.13C43.97 46.24 44.23 45.37 44.72 44.63C45.22 43.9 45.92 43.32 46.73 42.98C47.55 42.64 48.46 42.55 49.33 42.72C50.2 42.89 50.99 43.32 51.62 43.95C52.25 44.57 52.68 45.37 52.85 46.24C53.03 47.11 52.94 48.01 52.6 48.83C52.26 49.65 51.68 50.35 50.95 50.84C50.21 51.34 49.34 51.6 48.46 51.6C47.87 51.61 47.28 51.5 46.73 51.27C46.19 51.05 45.69 50.72 45.27 50.31C44.86 49.89 44.53 49.39 44.3 48.85C44.08 48.3 43.97 47.72 43.97 47.13ZM50.4 47.13C50.39 46.74 50.27 46.37 50.05 46.06C49.83 45.74 49.52 45.5 49.17 45.36C48.81 45.22 48.42 45.19 48.05 45.27C47.67 45.35 47.33 45.54 47.06 45.82C46.79 46.09 46.61 46.44 46.54 46.81C46.47 47.19 46.51 47.58 46.66 47.93C46.81 48.29 47.06 48.59 47.38 48.8C47.7 49.01 48.07 49.12 48.46 49.12C48.72 49.13 48.98 49.08 49.22 48.99C49.46 48.89 49.68 48.74 49.87 48.55C50.05 48.36 50.19 48.14 50.28 47.9C50.38 47.65 50.42 47.39 50.4 47.13Z" fill="#252525" fill-opacity="1.000000" fill-rule="nonzero"/>
		<path id="Vector" d="M63.06 42.9L63.06 50.94C63.06 53.78 60.84 54.98 58.59 54.98C57.8 55.04 57 54.88 56.3 54.52C55.59 54.16 55 53.61 54.58 52.93L56.75 51.68C56.92 52.03 57.19 52.32 57.53 52.51C57.87 52.7 58.25 52.78 58.64 52.75C58.89 52.79 59.15 52.78 59.4 52.7C59.64 52.63 59.87 52.5 60.06 52.32C60.25 52.15 60.39 51.93 60.48 51.69C60.57 51.45 60.61 51.19 60.58 50.94L60.58 50.16C60.29 50.52 59.91 50.81 59.48 51C59.05 51.19 58.59 51.28 58.12 51.26C56.98 51.26 55.88 50.8 55.08 50C54.27 49.19 53.82 48.1 53.82 46.96C53.82 45.82 54.27 44.73 55.08 43.92C55.88 43.11 56.98 42.66 58.12 42.66C58.59 42.64 59.05 42.73 59.48 42.92C59.91 43.11 60.29 43.4 60.58 43.76L60.58 42.92L63.06 42.9ZM60.58 46.96C60.6 46.55 60.5 46.15 60.28 45.8C60.07 45.45 59.75 45.18 59.38 45.01C59.01 44.84 58.59 44.79 58.19 44.86C57.79 44.93 57.42 45.11 57.12 45.4C56.83 45.68 56.62 46.04 56.54 46.44C56.45 46.84 56.49 47.26 56.64 47.64C56.79 48.02 57.05 48.34 57.39 48.57C57.73 48.8 58.13 48.92 58.54 48.92C58.8 48.94 59.07 48.9 59.32 48.81C59.57 48.72 59.8 48.58 60 48.39C60.19 48.21 60.34 47.99 60.44 47.74C60.54 47.49 60.59 47.23 60.58 46.96Z" fill="#252525" fill-opacity="1.000000" fill-rule="nonzero"/>
		<path id="Vector" d="M64.51 47.13C64.51 46.24 64.77 45.37 65.26 44.63C65.76 43.9 66.46 43.32 67.27 42.98C68.09 42.64 68.99 42.55 69.86 42.72C70.73 42.89 71.53 43.32 72.16 43.95C72.79 44.57 73.22 45.37 73.39 46.24C73.56 47.11 73.48 48.01 73.14 48.83C72.8 49.65 72.22 50.35 71.49 50.84C70.75 51.34 69.88 51.6 69 51.6C68.41 51.61 67.82 51.5 67.27 51.27C66.73 51.05 66.23 50.72 65.81 50.31C65.4 49.89 65.07 49.39 64.84 48.85C64.62 48.3 64.51 47.72 64.51 47.13ZM70.94 47.13C70.93 46.74 70.81 46.37 70.59 46.06C70.37 45.74 70.06 45.5 69.71 45.36C69.35 45.22 68.96 45.19 68.59 45.27C68.21 45.35 67.87 45.54 67.6 45.82C67.33 46.09 67.15 46.44 67.08 46.81C67.01 47.19 67.05 47.58 67.2 47.93C67.35 48.29 67.6 48.59 67.92 48.8C68.24 49.01 68.61 49.12 69 49.12C69.26 49.13 69.52 49.08 69.76 48.98C70 48.88 70.21 48.73 70.4 48.55C70.58 48.36 70.72 48.14 70.81 47.89C70.9 47.65 70.94 47.39 70.93 47.13L70.94 47.13Z" fill="#252525" fill-opacity="1.000000" fill-rule="nonzero"/>
		<path id="Vector" d="M74.64 40.63C74.64 40.33 74.73 40.03 74.9 39.78C75.07 39.53 75.31 39.33 75.59 39.22C75.87 39.1 76.17 39.07 76.47 39.13C76.77 39.19 77.04 39.34 77.25 39.55C77.47 39.76 77.61 40.04 77.67 40.33C77.73 40.63 77.7 40.93 77.58 41.21C77.47 41.49 77.27 41.73 77.02 41.9C76.77 42.07 76.47 42.16 76.17 42.16C75.77 42.16 75.38 41.99 75.09 41.71C74.81 41.42 74.65 41.03 74.64 40.63ZM74.9 42.9L77.42 42.9L77.42 51.36L74.9 51.36L74.9 42.9Z" fill="#252525" fill-opacity="1.000000" fill-rule="nonzero"/>
		<path id="Vector" d="M88.4 47.13C88.43 47.69 88.35 48.25 88.17 48.77C87.98 49.3 87.69 49.79 87.31 50.2C86.94 50.62 86.48 50.96 85.98 51.2C85.47 51.44 84.92 51.57 84.36 51.6C83.89 51.62 83.43 51.54 82.99 51.36C82.56 51.19 82.17 50.91 81.85 50.57L81.85 54.77L79.33 54.77L79.33 42.9L81.85 42.9L81.85 43.69C82.17 43.35 82.56 43.08 82.99 42.9C83.43 42.72 83.89 42.64 84.36 42.66C84.92 42.69 85.47 42.83 85.98 43.06C86.48 43.3 86.94 43.64 87.31 44.06C87.69 44.47 87.98 44.96 88.16 45.48C88.35 46.01 88.43 46.57 88.4 47.13ZM85.88 47.13C85.87 46.73 85.75 46.35 85.52 46.03C85.3 45.7 84.98 45.45 84.62 45.31C84.25 45.16 83.85 45.13 83.46 45.2C83.08 45.28 82.72 45.47 82.45 45.75C82.17 46.03 81.98 46.39 81.9 46.77C81.82 47.16 81.85 47.56 82 47.92C82.15 48.29 82.4 48.61 82.72 48.83C83.04 49.06 83.42 49.18 83.82 49.19C84.09 49.21 84.37 49.17 84.63 49.07C84.88 48.97 85.12 48.82 85.31 48.62C85.51 48.43 85.66 48.19 85.75 47.94C85.85 47.68 85.89 47.4 85.87 47.13L85.88 47.13Z" fill="#252525" fill-opacity="1.000000" fill-rule="nonzero"/>
		<path id="Vector" d="M96.24 48.82C96.24 50.77 94.56 51.6 92.72 51.6C91.98 51.67 91.24 51.51 90.59 51.15C89.94 50.79 89.42 50.25 89.08 49.59L91.28 48.34C91.37 48.64 91.56 48.91 91.82 49.09C92.08 49.27 92.4 49.36 92.72 49.33C93.33 49.33 93.63 49.14 93.63 48.81C93.63 47.87 89.43 48.37 89.43 45.45C89.43 43.6 91 42.67 92.79 42.67C93.45 42.65 94.11 42.81 94.69 43.13C95.27 43.44 95.76 43.91 96.1 44.48L93.89 45.64C93.79 45.42 93.63 45.23 93.43 45.1C93.23 44.97 92.99 44.89 92.75 44.89C92.31 44.89 92.05 45.06 92.05 45.37C92.08 46.34 96.24 45.69 96.24 48.82Z" fill="#252525" fill-opacity="1.000000" fill-rule="nonzero"/>
		<path id="Vector" d="M105.51 42.9L105.51 51.36L102.99 51.36L102.99 50.57C102.7 50.92 102.33 51.19 101.91 51.37C101.49 51.55 101.03 51.63 100.57 51.6C98.89 51.6 97.41 50.38 97.41 48.09L97.41 42.9L99.93 42.9L99.93 47.72C99.9 47.93 99.93 48.14 100 48.33C100.07 48.53 100.18 48.7 100.32 48.85C100.47 49 100.64 49.11 100.84 49.18C101.03 49.25 101.24 49.28 101.45 49.26C102.37 49.26 103.02 48.72 103.02 47.52L103.02 42.9L105.51 42.9Z" fill="#252525" fill-opacity="1.000000" fill-rule="nonzero"/>
		<path id="Vector" d="M120.06 46.17L120.06 51.36L117.55 51.36L117.55 46.39C117.55 45.55 117.13 44.99 116.33 44.99C115.52 44.99 115 45.59 115 46.59L115 51.36L112.48 51.36L112.48 46.39C112.48 45.55 112.08 44.99 111.27 44.99C110.45 44.99 109.95 45.59 109.95 46.59L109.95 51.36L107.43 51.36L107.43 42.9L109.95 42.9L109.95 43.68C110.21 43.33 110.56 43.06 110.95 42.88C111.35 42.7 111.78 42.63 112.22 42.66C112.65 42.64 113.08 42.73 113.47 42.93C113.86 43.12 114.19 43.42 114.43 43.78C114.71 43.4 115.08 43.1 115.51 42.9C115.94 42.71 116.41 42.62 116.88 42.66C118.8 42.66 120.06 44.05 120.06 46.17Z" fill="#252525" fill-opacity="1.000000" fill-rule="nonzero"/>
		<path id="Vector" d="M122.21 42.85C123.25 42.85 124.09 42 124.09 40.97C124.09 39.93 123.25 39.09 122.21 39.09C121.17 39.09 120.33 39.93 120.33 40.97C120.33 42 121.17 42.85 122.21 42.85Z" fill="#252525" fill-opacity="1.000000" fill-rule="nonzero"/>
		<path id="Vector" d="M68.49 32.61C73.35 32.61 77.3 28.66 77.3 23.8C77.3 18.94 73.35 15 68.49 15C63.63 15 59.69 18.94 59.69 23.8C59.69 28.66 63.63 32.61 68.49 32.61Z" fill="#252525" fill-opacity="1.000000" fill-rule="nonzero"/>
		<path id="Vector" d="M88.18 32.61C93.04 32.61 96.98 28.66 96.98 23.8C96.98 18.94 93.04 15 88.18 15C83.31 15 79.37 18.94 79.37 23.8C79.37 28.66 83.31 32.61 88.18 32.61Z" fill="#252525" fill-opacity="1.000000" fill-rule="nonzero"/>
		<path id="Vector" d="M57.61 15L40.01 15L40.01 32.6L57.61 32.6L57.61 15Z" fill="#252525" fill-opacity="1.000000" fill-rule="nonzero"/>
	</g>
</svg>
