<svg width="260.861206" height="70.000000" viewBox="0 0 260.861 70" fill="none" xmlns="http://www.w3.org/2000/svg" xmlns:xlink="http://www.w3.org/1999/xlink">
	<rect id="Logo" rx="34.500000" width="259.861206" height="69.000000" transform="translate(0.500000 0.500000)" fill="#FFFFFF" fill-opacity="1.000000"/>
	<g clip-path="url(#clip59_495)">
		<path id="Vector" d="M67.13 32.82C66.62 33.33 66.23 33.94 65.99 34.62C65.75 35.29 65.66 36.01 65.73 36.73L65.71 36.7C65.78 37.54 65.67 38.39 65.38 39.18C65.09 39.97 64.63 40.69 64.03 41.29C63.44 41.88 62.72 42.34 61.93 42.63C61.13 42.92 60.29 43.03 59.45 42.96L59.47 42.99C58.47 42.89 57.46 43.11 56.58 43.61C55.71 44.11 55.01 44.87 54.58 45.78C54.15 46.7 54.01 47.72 54.19 48.72C54.36 49.71 54.84 50.62 55.55 51.34C56.27 52.05 57.18 52.53 58.18 52.7C59.17 52.87 60.19 52.74 61.11 52.31C62.02 51.88 62.78 51.18 63.28 50.3C63.78 49.42 64 48.41 63.9 47.41L63.93 47.43C63.86 46.59 63.97 45.75 64.26 44.96C64.55 44.17 65.01 43.45 65.6 42.85C66.2 42.25 66.92 41.8 67.71 41.51C68.5 41.22 69.35 41.1 70.19 41.17L70.16 41.15C70.98 41.22 71.81 41.09 72.56 40.76C73.32 40.43 73.98 39.91 74.48 39.26C74.98 38.61 75.31 37.84 75.44 37.02C75.56 36.21 75.48 35.38 75.2 34.6C74.92 33.83 74.44 33.14 73.82 32.59C73.21 32.05 72.46 31.67 71.65 31.5C70.85 31.32 70.01 31.35 69.22 31.58C68.43 31.81 67.71 32.24 67.13 32.82L67.13 32.82Z" fill="#252525" fill-opacity="1.000000" fill-rule="nonzero"/>
		<path id="Vector" d="M57.29 39.84L57.27 39.82C57.98 39.89 58.7 39.8 59.38 39.56C60.05 39.32 60.67 38.93 61.17 38.43C61.68 37.92 62.07 37.3 62.31 36.63C62.55 35.95 62.64 35.23 62.57 34.52L62.59 34.54C62.52 33.7 62.64 32.86 62.93 32.07C63.21 31.27 63.67 30.56 64.27 29.96C64.87 29.36 65.58 28.91 66.38 28.62C67.17 28.33 68.01 28.21 68.85 28.28L68.83 28.26C69.83 28.35 70.84 28.14 71.72 27.64C72.59 27.14 73.29 26.38 73.72 25.46C74.15 24.55 74.29 23.53 74.12 22.53C73.94 21.54 73.47 20.62 72.75 19.91C72.04 19.2 71.12 18.72 70.13 18.55C69.14 18.37 68.11 18.51 67.2 18.94C66.29 19.37 65.53 20.07 65.03 20.95C64.53 21.82 64.31 22.83 64.4 23.84L64.38 23.81C64.45 24.65 64.34 25.5 64.05 26.29C63.76 27.08 63.3 27.8 62.7 28.39C62.11 28.99 61.39 29.45 60.6 29.74C59.81 30.03 58.96 30.14 58.12 30.07L58.14 30.1C57.43 30.02 56.71 30.11 56.03 30.35C55.36 30.59 54.74 30.98 54.24 31.49C53.73 31.99 53.34 32.61 53.1 33.28C52.86 33.96 52.77 34.68 52.84 35.39L52.82 35.37C52.89 36.21 52.77 37.05 52.49 37.85C52.2 38.64 51.74 39.36 51.14 39.95C50.55 40.55 49.83 41.01 49.04 41.3C48.24 41.59 47.4 41.7 46.56 41.63L46.58 41.65C45.58 41.56 44.57 41.78 43.69 42.28C42.82 42.78 42.12 43.53 41.69 44.45C41.26 45.36 41.12 46.38 41.29 47.38C41.47 48.37 41.94 49.29 42.66 50C43.37 50.72 44.29 51.19 45.28 51.37C46.27 51.54 47.3 51.4 48.21 50.97C49.12 50.54 49.88 49.84 50.38 48.97C50.88 48.09 51.1 47.08 51.01 46.08L51.03 46.1C50.96 45.26 51.07 44.42 51.36 43.62C51.65 42.83 52.11 42.11 52.71 41.52C53.3 40.92 54.02 40.46 54.81 40.17C55.61 39.88 56.45 39.77 57.29 39.84Z" fill="#252525" fill-opacity="1.000000" fill-rule="nonzero"/>
		<path id="Vector" d="M48.35 37.17C48.86 36.66 49.25 36.04 49.49 35.37C49.73 34.69 49.82 33.97 49.75 33.26L49.77 33.28C49.7 32.44 49.82 31.6 50.11 30.81C50.4 30.02 50.85 29.3 51.45 28.7C52.05 28.1 52.77 27.65 53.56 27.36C54.35 27.07 55.19 26.95 56.03 27.03L56.01 27C57.01 27.1 58.02 26.88 58.9 26.38C59.77 25.88 60.47 25.12 60.9 24.21C61.33 23.29 61.47 22.27 61.3 21.28C61.12 20.28 60.65 19.37 59.93 18.65C59.22 17.94 58.3 17.46 57.31 17.29C56.32 17.12 55.29 17.25 54.38 17.68C53.47 18.11 52.71 18.81 52.21 19.69C51.71 20.56 51.49 21.57 51.59 22.58L51.56 22.55C51.63 23.39 51.52 24.24 51.23 25.03C50.94 25.82 50.48 26.54 49.89 27.14C49.29 27.73 48.57 28.19 47.78 28.48C46.99 28.77 46.14 28.88 45.3 28.81L45.33 28.84C44.51 28.76 43.68 28.9 42.93 29.23C42.17 29.56 41.51 30.07 41.01 30.73C40.51 31.38 40.18 32.15 40.05 32.96C39.93 33.78 40.01 34.61 40.29 35.38C40.57 36.16 41.04 36.85 41.66 37.39C42.28 37.94 43.03 38.31 43.83 38.49C44.64 38.67 45.48 38.64 46.27 38.41C47.06 38.18 47.78 37.75 48.36 37.17L48.35 37.17Z" fill="#252525" fill-opacity="1.000000" fill-rule="nonzero"/>
		<path id="Vector" d="M89.66 23.87L93.62 23.87L93.62 43.14L89.66 43.14L89.66 23.87Z" fill="#252525" fill-opacity="1.000000" fill-rule="nonzero"/>
		<path id="Vector" d="M95.86 36.54C95.85 35.15 96.26 33.8 97.03 32.64C97.79 31.49 98.88 30.59 100.16 30.06C101.44 29.52 102.85 29.38 104.2 29.65C105.56 29.91 106.81 30.58 107.79 31.55C108.77 32.53 109.44 33.78 109.72 35.14C109.99 36.49 109.85 37.9 109.32 39.18C108.79 40.46 107.9 41.56 106.75 42.33C105.6 43.1 104.24 43.51 102.86 43.51C101.94 43.52 101.03 43.34 100.17 43C99.32 42.65 98.55 42.14 97.9 41.49C97.24 40.84 96.73 40.07 96.38 39.22C96.03 38.37 95.85 37.46 95.86 36.54ZM105.89 36.54C105.88 35.94 105.68 35.36 105.34 34.87C105 34.39 104.52 34.01 103.96 33.79C103.4 33.58 102.8 33.53 102.21 33.65C101.63 33.78 101.1 34.08 100.68 34.5C100.26 34.93 99.98 35.47 99.87 36.06C99.76 36.65 99.83 37.25 100.06 37.8C100.29 38.35 100.68 38.82 101.18 39.15C101.68 39.48 102.26 39.66 102.86 39.66C103.27 39.67 103.67 39.6 104.05 39.44C104.43 39.29 104.77 39.06 105.06 38.76C105.34 38.47 105.57 38.12 105.71 37.74C105.85 37.36 105.91 36.95 105.89 36.54Z" fill="#252525" fill-opacity="1.000000" fill-rule="nonzero"/>
		<path id="Vector" d="M125.64 29.94L125.64 42.47C125.64 46.91 122.18 48.78 118.67 48.78C117.43 48.87 116.19 48.62 115.09 48.06C113.99 47.5 113.06 46.64 112.41 45.58L115.79 43.63C116.06 44.18 116.5 44.63 117.03 44.93C117.57 45.23 118.19 45.35 118.8 45.29C119.19 45.34 119.59 45.31 119.96 45.19C120.34 45.07 120.68 44.87 120.97 44.6C121.25 44.32 121.48 43.99 121.62 43.62C121.76 43.26 121.81 42.86 121.78 42.47L121.78 41.26C121.32 41.83 120.73 42.28 120.06 42.58C119.39 42.87 118.66 43.01 117.93 42.98C116.18 42.92 114.53 42.19 113.32 40.94C112.11 39.69 111.43 38.01 111.43 36.27C111.43 34.53 112.11 32.85 113.32 31.6C114.53 30.35 116.18 29.62 117.93 29.57C118.66 29.53 119.39 29.67 120.06 29.97C120.73 30.26 121.32 30.72 121.78 31.28L121.78 29.94L125.64 29.94ZM121.78 36.27C121.81 35.64 121.64 35 121.31 34.46C120.97 33.92 120.48 33.49 119.9 33.22C119.32 32.96 118.67 32.88 118.04 32.99C117.41 33.1 116.83 33.39 116.37 33.83C115.91 34.27 115.59 34.84 115.46 35.47C115.32 36.09 115.38 36.74 115.62 37.34C115.86 37.93 116.27 38.44 116.8 38.79C117.33 39.15 117.95 39.34 118.59 39.34C119 39.37 119.42 39.31 119.81 39.17C120.21 39.03 120.56 38.8 120.87 38.51C121.17 38.23 121.4 37.88 121.56 37.49C121.72 37.11 121.79 36.69 121.78 36.27Z" fill="#252525" fill-opacity="1.000000" fill-rule="nonzero"/>
		<path id="Vector" d="M127.88 36.54C127.87 35.15 128.28 33.8 129.04 32.64C129.81 31.49 130.9 30.59 132.18 30.06C133.46 29.52 134.86 29.38 136.22 29.65C137.58 29.91 138.83 30.58 139.81 31.55C140.79 32.53 141.46 33.78 141.73 35.14C142 36.49 141.87 37.9 141.34 39.18C140.81 40.46 139.91 41.56 138.76 42.33C137.61 43.1 136.26 43.51 134.87 43.51C133.95 43.52 133.04 43.34 132.19 43C131.34 42.65 130.57 42.14 129.91 41.49C129.26 40.84 128.75 40.07 128.4 39.22C128.05 38.37 127.87 37.46 127.88 36.54ZM137.91 36.54C137.89 35.94 137.7 35.36 137.36 34.87C137.01 34.39 136.53 34.01 135.98 33.79C135.42 33.58 134.81 33.53 134.23 33.65C133.65 33.78 133.11 34.08 132.7 34.5C132.28 34.93 132 35.47 131.89 36.06C131.78 36.65 131.84 37.25 132.08 37.8C132.31 38.35 132.7 38.82 133.2 39.15C133.69 39.48 134.28 39.66 134.87 39.66C135.28 39.67 135.69 39.6 136.07 39.44C136.45 39.29 136.79 39.06 137.08 38.76C137.36 38.47 137.58 38.12 137.73 37.74C137.87 37.36 137.93 36.95 137.91 36.54Z" fill="#252525" fill-opacity="1.000000" fill-rule="nonzero"/>
		<path id="Vector" d="M143.72 26.4C143.72 25.93 143.86 25.47 144.12 25.08C144.38 24.69 144.75 24.39 145.18 24.21C145.62 24.03 146.1 23.98 146.56 24.07C147.02 24.16 147.44 24.39 147.77 24.72C148.11 25.05 148.33 25.48 148.42 25.94C148.51 26.4 148.47 26.88 148.29 27.31C148.11 27.74 147.8 28.12 147.41 28.38C147.02 28.64 146.56 28.78 146.09 28.78C145.46 28.77 144.86 28.52 144.42 28.07C143.98 27.63 143.72 27.03 143.72 26.4ZM144.12 29.94L148.08 29.94L148.08 43.14L144.11 43.14L144.12 29.94Z" fill="#252525" fill-opacity="1.000000" fill-rule="nonzero"/>
		<path id="Vector" d="M165.18 36.54C165.22 37.41 165.1 38.28 164.8 39.11C164.51 39.93 164.06 40.69 163.47 41.33C162.88 41.98 162.18 42.51 161.39 42.88C160.6 43.25 159.74 43.47 158.87 43.51C158.13 43.55 157.4 43.42 156.72 43.14C156.04 42.87 155.43 42.44 154.94 41.9L154.94 48.42L150.98 48.42L150.98 29.94L154.94 29.94L154.94 31.18C155.43 30.64 156.04 30.21 156.72 29.93C157.4 29.65 158.13 29.53 158.87 29.57C159.74 29.61 160.6 29.82 161.39 30.2C162.18 30.57 162.89 31.09 163.47 31.74C164.06 32.39 164.51 33.15 164.8 33.97C165.1 34.79 165.22 35.67 165.18 36.54ZM161.22 36.54C161.2 35.92 161 35.32 160.65 34.82C160.29 34.31 159.8 33.92 159.22 33.69C158.65 33.47 158.02 33.42 157.42 33.55C156.81 33.68 156.26 33.98 155.83 34.42C155.39 34.87 155.1 35.43 154.99 36.03C154.87 36.64 154.94 37.27 155.18 37.84C155.42 38.41 155.82 38.89 156.34 39.24C156.85 39.58 157.46 39.76 158.08 39.76C158.5 39.78 158.92 39.71 159.32 39.55C159.71 39.39 160.07 39.16 160.37 38.85C160.66 38.55 160.89 38.18 161.04 37.79C161.19 37.39 161.25 36.96 161.22 36.54Z" fill="#252525" fill-opacity="1.000000" fill-rule="nonzero"/>
		<path id="Vector" d="M177.4 39.18C177.4 42.21 174.76 43.51 171.91 43.51C170.76 43.61 169.6 43.37 168.59 42.81C167.58 42.25 166.75 41.4 166.23 40.37L169.66 38.41C169.8 38.89 170.1 39.3 170.51 39.59C170.91 39.87 171.41 40.01 171.9 39.97C172.85 39.97 173.33 39.68 173.33 39.15C173.33 37.7 166.83 38.47 166.83 33.9C166.83 31.02 169.26 29.57 172.01 29.57C173.04 29.54 174.06 29.78 174.97 30.28C175.87 30.78 176.63 31.51 177.15 32.39L173.78 34.21C173.63 33.87 173.38 33.57 173.07 33.37C172.75 33.16 172.38 33.05 172.01 33.05C171.32 33.05 170.9 33.32 170.9 33.79C170.9 35.3 177.4 34.29 177.4 39.18Z" fill="#252525" fill-opacity="1.000000" fill-rule="nonzero"/>
		<path id="Vector" d="M191.86 29.94L191.86 43.14L187.9 43.14L187.9 41.9C187.44 42.45 186.86 42.88 186.21 43.16C185.55 43.44 184.84 43.56 184.13 43.51C181.46 43.51 179.2 41.61 179.2 38.04L179.2 29.94L183.16 29.94L183.16 37.46C183.12 37.78 183.16 38.09 183.26 38.39C183.36 38.69 183.53 38.97 183.75 39.19C183.97 39.42 184.23 39.6 184.53 39.72C184.82 39.83 185.14 39.88 185.45 39.86C186.9 39.86 187.91 39.02 187.91 37.14L187.91 29.94L191.86 29.94Z" fill="#252525" fill-opacity="1.000000" fill-rule="nonzero"/>
		<path id="Vector" d="M214.57 35.03L214.57 43.14L210.61 43.14L210.61 35.38C210.61 34.06 209.98 33.21 208.71 33.21C207.39 33.21 206.65 34.14 206.65 35.69L206.65 43.14L202.69 43.14L202.69 35.38C202.69 34.06 202.06 33.21 200.79 33.21C199.47 33.21 198.73 34.14 198.73 35.69L198.73 43.14L194.77 43.14L194.77 29.94L198.73 29.94L198.73 31.15C199.14 30.61 199.68 30.19 200.3 29.91C200.92 29.63 201.59 29.52 202.27 29.57C202.94 29.53 203.62 29.68 204.23 29.98C204.83 30.29 205.35 30.75 205.72 31.31C206.16 30.72 206.74 30.25 207.41 29.95C208.08 29.64 208.82 29.51 209.55 29.57C212.58 29.57 214.57 31.73 214.57 35.03Z" fill="#252525" fill-opacity="1.000000" fill-rule="nonzero"/>
		<path id="Vector" d="M217.92 29.86C219.54 29.86 220.86 28.54 220.86 26.92C220.86 25.3 219.54 23.98 217.92 23.98C216.3 23.98 214.98 25.3 214.98 26.92C214.98 28.54 216.3 29.86 217.92 29.86Z" fill="#252525" fill-opacity="1.000000" fill-rule="nonzero"/>
	</g>
</svg>
