<svg width="229.982727" height="70.000000" viewBox="0 0 229.983 70" fill="none" xmlns="http://www.w3.org/2000/svg" xmlns:xlink="http://www.w3.org/1999/xlink">
	<rect id="Logo" rx="34.500000" width="228.982727" height="69.000000" transform="translate(0.500000 0.500000)" fill="#FFFFFF" fill-opacity="1.000000"/>
	<g clip-path="url(#clip59_480)">
		<path id="Vector" d="M59.55 17.17L59.53 17.14L50.59 17.14L40 35.29L47.27 48.02L47.28 48L50.02 52.76L71.05 52.86L78.43 40.2L78.38 40.2L81.11 35.47L70.68 17.22L59.55 17.17ZM66.47 29.28L66.52 29.28L61.27 20.15L68.95 20.19L77.68 35.47L74.94 40.2L67.78 40.2L70.28 35.88L66.47 29.28ZM57.73 20.11L61.31 26.31L56.35 26.31L47.86 41.04L47.28 42.04L43.43 35.31L52.3 20.11L57.73 20.11ZM54.28 35.85L58.07 29.28L63.03 29.28L66.85 35.88L64.35 40.2L56.8 40.21L54.28 35.85ZM48.99 45.02L50.43 42.53L52.57 38.83L55.09 43.18L62.63 43.18L62.62 43.2L73.23 43.21L69.34 49.87L51.74 49.8L48.99 45.02Z" fill="#252525" fill-opacity="1.000000" fill-rule="evenodd"/>
		<path id="Vector" d="M135.26 28.02C136.28 28.02 137.11 27.19 137.11 26.15C137.11 25.11 136.28 24.3 135.26 24.3C134.22 24.3 133.39 25.11 133.39 26.15C133.39 27.19 134.22 28.02 135.26 28.02ZM133.61 40.28L136.89 40.28L136.89 29.67L133.61 29.67L133.61 40.28Z" fill="#252525" fill-opacity="1.000000" fill-rule="nonzero"/>
		<path id="Vector" d="M138.81 45.37L142.03 45.37L142.03 39.22C142.65 40.02 144.05 40.57 145.51 40.57C148.67 40.57 150.58 38.16 150.5 34.8C150.41 31.39 148.44 29.33 145.49 29.33C143.98 29.33 142.56 29.99 141.97 30.96L141.8 29.67L138.81 29.67L138.81 45.37ZM142.1 34.97C142.1 33.38 143.16 32.32 144.68 32.32C146.23 32.32 147.21 33.4 147.21 34.97C147.21 36.54 146.23 37.63 144.68 37.63C143.16 37.63 142.1 36.56 142.1 34.97Z" fill="#252525" fill-opacity="1.000000" fill-rule="nonzero"/>
		<path id="Vector" d="M150.84 36.93C150.93 39.07 152.63 40.55 155.3 40.55C157.86 40.55 159.65 39.19 159.65 37.01C159.65 35.44 158.71 34.4 156.97 33.98L155.09 33.51C154.41 33.34 153.98 33.17 153.98 32.62C153.98 32.07 154.43 31.71 155.09 31.71C155.83 31.71 156.32 32.19 156.29 32.92L159.24 32.92C159.16 30.71 157.48 29.33 155.15 29.33C152.79 29.33 151.03 30.73 151.03 32.85C151.03 34.27 151.82 35.44 153.92 35.99L155.79 36.48C156.34 36.63 156.57 36.88 156.57 37.24C156.57 37.77 156.08 38.11 155.25 38.11C154.3 38.11 153.79 37.67 153.79 36.93L150.84 36.93Z" fill="#252525" fill-opacity="1.000000" fill-rule="nonzero"/>
		<path id="Vector" d="M164.65 40.55C165.94 40.55 167.23 39.96 167.89 39.09L168.1 40.28L171.18 40.28L171.18 29.67L167.91 29.67L167.91 35.19C167.91 36.78 167.45 37.65 165.94 37.65C164.77 37.65 164.01 37.12 164.01 35.14L164.01 29.67L160.74 29.67L160.74 36.33C160.74 38.86 162.14 40.55 164.65 40.55Z" fill="#252525" fill-opacity="1.000000" fill-rule="nonzero"/>
		<path id="Vector" d="M176.36 40.28L176.36 34.49C176.36 32.7 177.31 32.19 178.25 32.19C179.29 32.19 179.97 32.83 179.97 34.15L179.97 40.28L183.19 40.28L183.19 34.49C183.19 32.68 184.12 32.17 185.06 32.17C186.1 32.17 186.8 32.81 186.8 34.15L186.8 40.28L189.98 40.28L189.98 33.34C189.98 30.92 188.71 29.31 185.97 29.31C184.44 29.31 183.19 30.05 182.64 31.2C182 30.05 180.9 29.31 179.14 29.31C177.97 29.31 176.89 29.84 176.25 30.69L176.13 29.67L173.07 29.67L173.07 40.28L176.36 40.28Z" fill="#252525" fill-opacity="1.000000" fill-rule="nonzero"/>
		<path id="Vector" d="M90.46 24.58L86.98 24.58L86.98 40.28L96.61 40.28L96.61 37.2L90.46 37.2L90.46 24.58Z" fill="#252525" fill-opacity="1.000000" fill-rule="nonzero"/>
		<path id="Vector" d="M96.94 34.95C96.94 38.31 99.19 40.53 102.58 40.53C105.96 40.53 108.21 38.31 108.21 34.95C108.21 31.6 105.96 29.35 102.58 29.35C99.19 29.35 96.94 31.6 96.94 34.95ZM100.23 34.93C100.23 33.34 101.16 32.28 102.58 32.28C103.98 32.28 104.92 33.34 104.92 34.93C104.92 36.55 103.98 37.61 102.58 37.61C101.16 37.61 100.23 36.55 100.23 34.93Z" fill="#252525" fill-opacity="1.000000" fill-rule="nonzero"/>
		<path id="Vector" d="M108.73 34.78C108.73 37.99 110.81 40.15 113.76 40.15C115.18 40.15 116.41 39.64 117.03 38.81L117.03 40.28C117.03 41.74 116.11 42.72 114.5 42.72C113.06 42.72 112.06 42.04 112 40.83L108.69 40.83C108.99 43.74 111.23 45.69 114.31 45.69C117.94 45.69 120.23 43.33 120.23 39.6L120.23 29.67L117.28 29.67L117.11 30.75C116.52 29.88 115.26 29.31 113.82 29.31C110.85 29.31 108.73 31.54 108.73 34.78ZM112.04 34.7C112.04 33.17 113.06 32.15 114.35 32.15C115.86 32.15 116.96 33.15 116.96 34.7C116.96 36.25 115.88 37.31 114.37 37.31C113.08 37.31 112.04 36.25 112.04 34.7Z" fill="#252525" fill-opacity="1.000000" fill-rule="nonzero"/>
		<path id="Vector" d="M121.18 34.95C121.18 38.31 123.43 40.53 126.82 40.53C130.2 40.53 132.44 38.31 132.44 34.95C132.44 31.6 130.2 29.35 126.82 29.35C123.43 29.35 121.18 31.6 121.18 34.95ZM124.47 34.93C124.47 33.34 125.4 32.28 126.82 32.28C128.22 32.28 129.16 33.34 129.16 34.93C129.16 36.55 128.22 37.61 126.82 37.61C125.4 37.61 124.47 36.55 124.47 34.93Z" fill="#252525" fill-opacity="1.000000" fill-rule="nonzero"/>
	</g>
</svg>
