<svg width="183.696426" height="70.000000" viewBox="0 0 183.696 70" fill="none" xmlns="http://www.w3.org/2000/svg" xmlns:xlink="http://www.w3.org/1999/xlink">
	<rect id="Logo" rx="34.500000" width="182.696411" height="69.000000" transform="translate(0.500002 0.500000)" fill="#FFFFFF" fill-opacity="1.000000"/>
	<g clip-path="url(#clip59_515)">
		<path id="Vector" d="M87.61 50.23L90.34 50.23L90.34 39.92L87.61 39.92L87.61 50.23ZM87.61 38.31L90.34 38.31L90.34 35.86L87.61 35.86L87.61 38.31Z" fill="#252525" fill-opacity="1.000000" fill-rule="nonzero"/>
		<path id="Vector" d="M92.11 53.61L94.84 53.61L94.84 49.07L94.88 49.07C95.46 49.95 96.41 50.53 97.86 50.53C100.51 50.53 102.32 48.42 102.32 45.09C102.32 41.87 100.57 39.64 97.84 39.64C96.43 39.64 95.46 40.3 94.8 41.21L94.74 41.21L94.74 39.92L92.11 39.92L92.11 53.61ZM97.27 48.26C95.64 48.26 94.78 47.04 94.78 45.17C94.78 43.32 95.46 41.85 97.17 41.85C98.86 41.85 99.54 43.22 99.54 45.17C99.54 47.12 98.66 48.26 97.27 48.26Z" fill="#252525" fill-opacity="1.000000" fill-rule="nonzero"/>
		<path id="Vector" d="M107.77 50.53C110.35 50.53 112.12 49.29 112.12 47.22C112.12 44.8 110.21 44.32 108.48 43.96C107.01 43.66 105.64 43.58 105.64 42.69C105.64 41.95 106.35 41.55 107.41 41.55C108.58 41.55 109.28 41.95 109.4 43.06L111.88 43.06C111.68 40.98 110.17 39.64 107.45 39.64C105.1 39.64 103.25 40.7 103.25 42.93C103.25 45.19 105.06 45.69 106.91 46.05C108.32 46.33 109.62 46.43 109.62 47.42C109.62 48.14 108.94 48.6 107.73 48.6C106.51 48.6 105.66 48.08 105.48 46.9L102.95 46.9C103.11 49.09 104.78 50.53 107.77 50.53Z" fill="#252525" fill-opacity="1.000000" fill-rule="nonzero"/>
		<path id="Vector" d="M122.5 50.23L122.5 39.92L119.76 39.92L119.76 45.87C119.76 47.24 118.98 48.2 117.69 48.2C116.53 48.2 115.98 47.54 115.98 46.33L115.98 39.92L113.27 39.92L113.27 46.8C113.27 49.05 114.56 50.51 116.85 50.51C118.3 50.51 119.1 49.97 119.8 49.03L119.87 49.03L119.87 50.23L122.5 50.23Z" fill="#252525" fill-opacity="1.000000" fill-rule="nonzero"/>
		<path id="Vector" d="M124.27 50.23L127 50.23L127 44.24C127 42.87 127.75 41.99 128.85 41.99C129.86 41.99 130.44 42.59 130.44 43.76L130.44 50.23L133.17 50.23L133.17 44.24C133.17 42.87 133.88 41.99 135.02 41.99C136.03 41.99 136.61 42.59 136.61 43.76L136.61 50.23L139.35 50.23L139.35 43.3C139.35 41.04 138.12 39.64 135.95 39.64C134.64 39.64 133.56 40.32 132.85 41.45L132.81 41.45C132.31 40.36 131.26 39.64 129.96 39.64C128.53 39.64 127.52 40.36 126.96 41.31L126.9 41.31L126.9 39.92L124.27 39.92L124.27 50.23Z" fill="#252525" fill-opacity="1.000000" fill-rule="nonzero"/>
		<path id="Vector" d="M87.65 32.57L90.38 32.57L90.38 18.19L87.65 18.19L87.65 32.57Z" fill="#252525" fill-opacity="1.000000" fill-rule="nonzero"/>
		<path id="Vector" d="M97.07 32.87C100.27 32.87 102.46 30.5 102.46 27.42C102.46 24.34 100.27 21.97 97.07 21.97C93.87 21.97 91.68 24.34 91.68 27.42C91.68 30.5 93.87 32.87 97.07 32.87ZM97.07 30.78C95.38 30.78 94.46 29.43 94.46 27.42C94.46 25.41 95.38 24.04 97.07 24.04C98.74 24.04 99.68 25.41 99.68 27.42C99.68 29.43 98.74 30.78 97.07 30.78Z" fill="#252525" fill-opacity="1.000000" fill-rule="nonzero"/>
		<path id="Vector" d="M108.27 36.09C109.8 36.09 111.13 35.72 111.99 34.92C112.76 34.22 113.22 33.23 113.22 31.78L113.22 22.25L110.59 22.25L110.59 23.34L110.55 23.34C109.92 22.47 108.98 21.97 107.69 21.97C105.08 21.97 103.23 23.94 103.23 27.02C103.23 30.13 105.48 31.94 107.77 31.94C109.08 31.94 109.86 31.42 110.47 30.74L110.53 30.74L110.53 31.86C110.53 33.27 109.78 34.01 108.23 34.01C106.97 34.01 106.38 33.51 106.16 32.87L103.45 32.87C103.73 34.88 105.46 36.09 108.27 36.09ZM108.23 29.75C106.83 29.75 105.9 28.73 105.9 26.98C105.9 25.25 106.83 24.16 108.21 24.16C109.86 24.16 110.67 25.45 110.67 26.96C110.67 28.49 109.96 29.75 108.23 29.75Z" fill="#252525" fill-opacity="1.000000" fill-rule="nonzero"/>
		<path id="Vector" d="M119.87 32.87C123.06 32.87 125.25 30.5 125.25 27.42C125.25 24.34 123.06 21.97 119.87 21.97C116.67 21.97 114.48 24.34 114.48 27.42C114.48 30.5 116.67 32.87 119.87 32.87ZM119.87 30.78C118.18 30.78 117.25 29.43 117.25 27.42C117.25 25.41 118.18 24.04 119.87 24.04C121.54 24.04 122.48 25.41 122.48 27.42C122.48 29.43 121.54 30.78 119.87 30.78Z" fill="#252525" fill-opacity="1.000000" fill-rule="nonzero"/>
		<path id="Vector" d="M127.65 28.63L139.47 28.63L139.47 26.27L127.65 26.27L127.65 28.63Z" fill="#252525" fill-opacity="1.000000" fill-rule="nonzero"/>
		<path id="Vector" d="M140.34 38.17C140.34 37.7 140.72 37.33 141.18 37.33L142.85 37.33C143.32 37.33 143.69 37.7 143.69 38.17C143.69 38.63 143.32 39 142.85 39L141.18 39C140.72 39 140.34 38.63 140.34 38.17Z" fill="#252525" fill-opacity="1.000000" fill-rule="nonzero"/>
		<path id="Vector" d="M60 15C71.04 15 80 23.95 80 35C80 46.04 71.04 55 60 55C48.95 55 40 46.04 40 35C40 23.95 48.95 15 60 15ZM59.27 16.49C56.99 16.81 54.82 18.65 53.13 21.71C52.64 22.6 52.2 23.58 51.82 24.65C54.11 24.07 56.63 23.73 59.27 23.68L59.27 16.49ZM50.13 25.13C50.6 23.62 51.19 22.24 51.86 21.02C52.7 19.5 53.69 18.18 54.81 17.17C48.73 18.94 43.94 23.73 42.17 29.81C43.18 28.69 44.5 27.7 46.02 26.86C47.24 26.19 48.62 25.6 50.13 25.13ZM49.65 26.82C49.07 29.11 48.73 31.63 48.68 34.27L41.49 34.27C41.81 31.99 43.65 29.82 46.71 28.13C47.6 27.64 48.58 27.2 49.65 26.82ZM50.12 34.27C50.18 31.39 50.6 28.68 51.29 26.29C53.68 25.6 56.39 25.18 59.27 25.12L59.27 28.25C58.2 31 56 33.2 53.25 34.27L50.12 34.27ZM48.68 35.72L41.49 35.72C41.81 38 43.65 40.17 46.71 41.86C47.6 42.35 48.58 42.79 49.65 43.17C49.07 40.88 48.73 38.36 48.68 35.72ZM51.29 43.7C50.6 41.31 50.18 38.6 50.12 35.72L53.25 35.72C56 36.79 58.2 38.99 59.27 41.74L59.27 44.87C56.39 44.81 53.68 44.39 51.29 43.7ZM50.13 44.86C48.62 44.39 47.24 43.8 46.02 43.13C44.5 42.29 43.18 41.3 42.17 40.18C43.94 46.26 48.73 51.05 54.81 52.82C53.69 51.81 52.7 50.49 51.86 48.97C51.19 47.75 50.6 46.37 50.13 44.86ZM59.27 53.5C56.99 53.18 54.82 51.34 53.13 48.28C52.64 47.39 52.2 46.41 51.82 45.34C54.11 45.92 56.63 46.26 59.27 46.31L59.27 53.5ZM65.18 52.82C66.3 51.81 67.29 50.49 68.13 48.97C68.8 47.75 69.39 46.37 69.86 44.86C71.37 44.39 72.75 43.8 73.97 43.13C75.49 42.29 76.81 41.3 77.82 40.18C76.05 46.26 71.26 51.05 65.18 52.82ZM68.17 45.34C67.79 46.41 67.35 47.39 66.86 48.28C65.17 51.34 63 53.18 60.72 53.5L60.72 46.31C63.36 46.26 65.88 45.92 68.17 45.34ZM70.34 43.17C71.41 42.79 72.39 42.35 73.28 41.86C76.34 40.17 78.18 38 78.5 35.72L71.31 35.72C71.26 38.36 70.92 40.88 70.34 43.17ZM69.87 35.72C69.81 38.6 69.39 41.31 68.7 43.7C66.31 44.39 63.6 44.81 60.72 44.87L60.72 41.75C61.79 38.99 63.99 36.79 66.75 35.72L69.87 35.72ZM71.31 34.27L78.5 34.27C78.18 31.99 76.34 29.82 73.28 28.13C72.39 27.64 71.41 27.2 70.34 26.82C70.92 29.11 71.26 31.63 71.31 34.27ZM68.7 26.29C69.39 28.68 69.81 31.39 69.87 34.27L66.75 34.27C63.99 33.2 61.79 31 60.72 28.24L60.72 25.12C63.6 25.18 66.31 25.6 68.7 26.29ZM69.86 25.13C71.37 25.6 72.75 26.19 73.97 26.86C75.49 27.7 76.81 28.69 77.82 29.81C76.05 23.73 71.26 18.94 65.18 17.17C66.3 18.18 67.29 19.5 68.13 21.02C68.8 22.24 69.39 23.62 69.86 25.13ZM60.72 16.49C63 16.81 65.17 18.65 66.86 21.71C67.35 22.6 67.79 23.58 68.17 24.65C65.88 24.07 63.36 23.73 60.72 23.68L60.72 16.49Z" fill="#252525" fill-opacity="1.000000" fill-rule="evenodd"/>
	</g>
</svg>
