<svg width="30.000000" height="30.000000" viewBox="0 0 30 30" fill="none" xmlns="http://www.w3.org/2000/svg" xmlns:xlink="http://www.w3.org/1999/xlink">
	<path id="Vector" d="M14.98 0C17.05 0 19 0.39 20.82 1.17C22.65 1.96 24.24 3.03 25.6 4.39C26.96 5.75 28.03 7.34 28.82 9.15C29.6 10.96 30 12.9 30 14.98C30 17.05 29.6 19 28.82 20.82C28.03 22.65 26.96 24.24 25.6 25.6C24.24 26.96 22.65 28.03 20.82 28.82C19 29.6 17.05 30 14.98 30C12.9 30 10.96 29.6 9.15 28.82C7.34 28.03 5.75 26.96 4.39 25.6C3.03 24.24 1.96 22.65 1.17 20.82C0.39 19 0 17.05 0 14.98C0 12.9 0.39 10.96 1.17 9.15C1.96 7.34 3.03 5.75 4.39 4.39C5.75 3.03 7.34 1.96 9.15 1.17C10.96 0.39 12.9 0 14.98 0ZM20.63 6.54L17.44 6.54C16.82 6.54 16.25 6.65 15.73 6.86C15.2 7.08 14.74 7.36 14.35 7.72C13.96 8.08 13.65 8.48 13.44 8.93C13.23 9.39 13.12 9.84 13.12 10.29L13.12 12.19L10.29 12.19L10.29 15.91L13.12 15.91L13.12 23.42L16.87 23.42L16.87 15.91L19.66 15.91L19.66 12.19L16.87 12.19L16.87 11.22C16.87 10.94 16.99 10.71 17.21 10.54C17.44 10.38 17.64 10.29 17.8 10.29L20.63 10.29L20.63 6.54Z" fill="#252525" fill-opacity="1.000000" fill-rule="nonzero"/>
</svg>
