<svg width="30.000000" height="30.000000" viewBox="0 0 30 30" fill="none" xmlns="http://www.w3.org/2000/svg" xmlns:xlink="http://www.w3.org/1999/xlink">
	<path id="Vector" d="M14.98 0C17.06 0 19 0.39 20.82 1.18C22.64 1.97 24.22 3.04 25.59 4.39C26.95 5.74 28.02 7.32 28.81 9.13C29.6 10.95 30 12.9 30 14.98C30 17.06 29.6 19 28.81 20.82C28.02 22.64 26.95 24.22 25.59 25.59C24.22 26.95 22.64 28.02 20.82 28.81C19 29.6 17.06 30 14.98 30C12.9 30 10.95 29.6 9.13 28.81C7.32 28.02 5.74 26.95 4.39 25.59C3.04 24.22 1.97 22.64 1.18 20.82C0.39 19 0 17.06 0 14.98C0 12.9 0.39 10.95 1.18 9.13C1.97 7.32 3.04 5.74 4.39 4.39C5.74 3.04 7.32 1.97 9.13 1.18C10.95 0.39 12.9 0 14.98 0ZM14.98 23.44C16.15 23.44 17.25 23.21 18.27 22.77C19.3 22.33 20.2 21.73 20.96 20.96C21.73 20.2 22.33 19.3 22.77 18.27C23.21 17.25 23.44 16.15 23.44 14.98C23.44 13.81 23.21 12.71 22.77 11.7C22.33 10.68 21.73 9.79 20.96 9.03C20.2 8.26 19.3 7.66 18.27 7.22C17.25 6.78 16.15 6.55 14.98 6.55C13.83 6.55 12.74 6.78 11.72 7.22C10.69 7.66 9.79 8.26 9.03 9.03C8.26 9.79 7.66 10.68 7.22 11.7C6.78 12.71 6.55 13.81 6.55 14.98C6.55 16.15 6.78 17.25 7.22 18.27C7.66 19.3 8.26 20.2 9.03 20.96C9.79 21.73 10.69 22.33 11.72 22.77C12.74 23.21 13.83 23.44 14.98 23.44ZM15.69 15.23C14.48 15.63 13.37 16.22 12.38 16.98C11.39 17.75 10.53 18.67 9.82 19.74C8.69 18.5 8.07 17.02 7.95 15.3C8.14 15.32 8.32 15.34 8.47 15.34L8.96 15.34C11.15 15.34 13.26 14.96 15.26 14.22L15.48 14.73L15.69 15.23ZM16.59 13.69C18.1 13.02 19.49 12.13 20.78 11.03C21.6 12.21 22 13.51 22 14.94C21.09 14.73 20.21 14.62 19.35 14.62C18.56 14.62 17.8 14.7 17.06 14.87C16.98 14.68 16.91 14.48 16.84 14.28C16.77 14.08 16.69 13.88 16.59 13.69ZM10.89 20.71C11.51 19.71 12.28 18.85 13.19 18.15C14.09 17.44 15.08 16.91 16.16 16.55C16.42 17.37 16.64 18.2 16.81 19.04C16.97 19.89 17.1 20.76 17.2 21.64C16.51 21.88 15.77 22 14.98 22C13.47 22 12.11 21.57 10.89 20.71ZM17.52 16.2C18.19 16.08 18.8 16.02 19.35 16.02C20.23 16.02 21.07 16.14 21.86 16.37C21.67 17.35 21.29 18.25 20.71 19.06C20.14 19.88 19.42 20.53 18.56 21.03C18.39 19.41 18.05 17.8 17.52 16.2ZM19.89 9.96C19.27 10.46 18.63 10.92 17.99 11.34C17.34 11.76 16.67 12.12 15.98 12.43C15.57 11.69 15.14 10.97 14.67 10.26C14.21 9.56 13.7 8.87 13.15 8.2C13.72 8.04 14.33 7.95 14.98 7.95C15.91 7.95 16.79 8.12 17.63 8.47C18.47 8.82 19.22 9.31 19.89 9.96ZM14.65 12.97C12.81 13.62 10.92 13.94 8.96 13.94L8.47 13.94L8.06 13.9C8.23 12.8 8.63 11.8 9.28 10.89C9.92 9.98 10.75 9.27 11.75 8.74C12.87 10.03 13.84 11.44 14.65 12.97Z" fill="#252525" fill-opacity="1.000000" fill-rule="nonzero"/>
</svg>
