<svg width="30.000000" height="30.000000" viewBox="0 0 30 30" fill="none" xmlns="http://www.w3.org/2000/svg" xmlns:xlink="http://www.w3.org/1999/xlink">
	<path id="Vector" d="M14.98 0C17.06 0 19 0.39 20.82 1.18C22.64 1.97 24.22 3.04 25.59 4.39C26.95 5.74 28.02 7.32 28.81 9.13C29.6 10.95 30 12.9 30 14.98C30 17.06 29.6 19 28.81 20.82C28.02 22.64 26.95 24.22 25.59 25.59C24.22 26.95 22.64 28.02 20.82 28.81C19 29.6 17.06 30 14.98 30C12.9 30 10.95 29.6 9.13 28.81C7.32 28.02 5.74 26.95 4.39 25.59C3.04 24.22 1.97 22.64 1.18 20.82C0.39 19 0 17.06 0 14.98C0 12.9 0.39 10.95 1.18 9.13C1.97 7.32 3.04 5.74 4.39 4.39C5.74 3.04 7.32 1.97 9.13 1.18C10.95 0.39 12.9 0 14.98 0ZM22.43 11.75C23.13 11.23 23.73 10.59 24.26 9.85C23.93 10 23.59 10.11 23.24 10.21C22.89 10.31 22.53 10.38 22.15 10.42C22.53 10.19 22.86 9.89 23.15 9.55C23.44 9.2 23.64 8.82 23.76 8.42C23.4 8.61 23.03 8.78 22.65 8.94C22.27 9.09 21.87 9.21 21.46 9.28C21.13 8.94 20.74 8.67 20.28 8.45C19.83 8.24 19.33 8.13 18.78 8.13C18.27 8.13 17.8 8.23 17.36 8.42C16.92 8.61 16.54 8.87 16.21 9.21C15.89 9.54 15.63 9.93 15.44 10.37C15.25 10.81 15.16 11.29 15.16 11.79C15.16 11.93 15.16 12.07 15.17 12.22C15.19 12.36 15.2 12.49 15.23 12.61C13.72 12.54 12.32 12.17 11.03 11.5C9.74 10.83 8.64 9.94 7.74 8.81C7.4 9.36 7.24 9.97 7.24 10.64C7.24 11.26 7.38 11.84 7.68 12.38C7.98 12.92 8.37 13.35 8.85 13.69C8.23 13.64 7.68 13.48 7.2 13.22L7.2 13.26C7.2 14.16 7.48 14.95 8.04 15.6C8.6 16.26 9.3 16.67 10.14 16.84C9.97 16.89 9.81 16.92 9.65 16.95C9.5 16.97 9.34 16.98 9.17 16.98C9.05 16.98 8.94 16.98 8.83 16.97C8.72 16.95 8.61 16.94 8.49 16.91C8.73 17.63 9.15 18.23 9.76 18.7C10.37 19.18 11.08 19.42 11.89 19.42C11.27 19.92 10.57 20.31 9.8 20.59C9.02 20.86 8.21 21 7.38 21C7.21 21 7.06 20.99 6.91 20.98C6.77 20.97 6.63 20.95 6.48 20.93C7.29 21.45 8.17 21.86 9.12 22.15C10.06 22.43 11.05 22.58 12.07 22.58C13.75 22.58 15.23 22.26 16.52 21.63C17.81 20.99 18.89 20.18 19.76 19.19C20.63 18.2 21.3 17.09 21.75 15.86C22.21 14.62 22.43 13.41 22.43 12.22L22.43 11.75Z" fill="#252525" fill-opacity="1.000000" fill-rule="nonzero"/>
</svg>
