<svg width="30.000000" height="30.000000" viewBox="0 0 30 30" fill="none" xmlns="http://www.w3.org/2000/svg" xmlns:xlink="http://www.w3.org/1999/xlink">
	<path id="Vector" d="M14.98 0C17.06 0 19 0.39 20.82 1.18C22.64 1.97 24.22 3.04 25.59 4.39C26.95 5.74 28.02 7.32 28.81 9.13C29.6 10.95 30 12.9 30 14.98C30 17.06 29.6 19 28.81 20.82C28.02 22.64 26.95 24.22 25.59 25.59C24.22 26.95 22.64 28.02 20.82 28.81C19 29.6 17.06 30 14.98 30C12.9 30 10.95 29.6 9.13 28.81C7.32 28.02 5.74 26.95 4.39 25.59C3.04 24.22 1.97 22.64 1.18 20.82C0.39 19 0 17.06 0 14.98C0 12.9 0.39 10.95 1.18 9.13C1.97 7.32 3.04 5.74 4.39 4.39C5.74 3.04 7.32 1.97 9.13 1.18C10.95 0.39 12.9 0 14.98 0ZM10.32 11.25L6.55 11.25L6.55 23.44L10.32 23.44L10.32 11.25ZM8.42 10.28C8.94 10.28 9.39 10.1 9.76 9.74C10.13 9.39 10.32 8.94 10.32 8.42C10.32 7.89 10.13 7.45 9.76 7.09C9.39 6.73 8.94 6.55 8.42 6.55C7.89 6.55 7.45 6.73 7.09 7.09C6.73 7.45 6.55 7.89 6.55 8.42C6.55 8.94 6.73 9.39 7.09 9.74C7.45 10.1 7.89 10.28 8.42 10.28ZM23.44 16.37C23.44 15.51 23.2 14.67 22.72 13.85C22.24 13.02 21.62 12.4 20.86 11.97C20.16 11.58 19.36 11.38 18.44 11.36C17.52 11.33 16.67 11.49 15.91 11.82L15.91 11.25L12.18 11.25L12.18 23.44L15.91 23.44L15.91 15.98L17.49 15.23C17.68 15.13 17.93 15.08 18.26 15.08C18.58 15.08 18.84 15.14 19.03 15.26C19.17 15.34 19.31 15.49 19.46 15.73C19.6 15.97 19.67 16.18 19.67 16.37L19.67 23.44L23.44 23.44L23.44 16.37Z" fill="#252525" fill-opacity="1.000000" fill-rule="nonzero"/>
</svg>
