<svg width="90" height="35" viewBox="0 0 92 35" fill="none" xmlns="http://www.w3.org/2000/svg">
<g clip-path="url(#clip0_59_8)">
<path d="M22.1005 0C18.5467 0 15.1385 1.41173 12.6256 3.92462L4.42462 12.1256C1.91173 14.6385 0.5 18.0467 0.5 21.6005C0.5 29.0009 6.49916 35 13.8995 35C17.4533 35 20.8615 33.5882 23.3744 31.0753L29.0471 25.4027C29.0471 25.4025 29.0472 25.4028 29.0471 25.4027L45.5753 8.87437C46.7755 7.67423 48.4032 7 50.1005 7C52.942 7 55.3511 8.85198 56.1863 11.4147L61.4026 6.19845C59.0229 2.4714 54.8503 0 50.1005 0C46.5467 0 43.1385 1.41173 40.6256 3.92462L18.4247 26.1256C17.2245 27.3258 15.5968 28 13.8995 28C10.3651 28 7.5 25.1349 7.5 21.6005C7.5 19.9032 8.17423 18.2755 9.37437 17.0753L17.5753 8.87437C18.7755 7.67423 20.4032 7 22.1005 7C24.9421 7 27.3511 8.85206 28.1863 11.4149L33.4027 6.19858C31.023 2.47147 26.8504 0 22.1005 0Z" fill="#394149"/>
<path d="M46.4247 26.1256C45.2245 27.3258 43.5968 28 41.8995 28C39.0583 28 36.6495 26.1485 35.8141 23.5861L30.5979 28.8023C32.9777 32.5289 37.15 35 41.8995 35C45.4533 35 48.8615 33.5882 51.3744 31.0753L73.5753 8.87437C74.7755 7.67423 76.4032 7 78.1005 7C81.6349 7 84.5 9.86515 84.5 13.3995C84.5 15.0968 83.8258 16.7245 82.6256 17.9247L74.4247 26.1256C73.2245 27.3258 71.5968 28 69.8995 28C67.0581 28 64.6492 26.1481 63.8138 23.5856L58.5977 28.8018C60.9773 32.5288 65.1498 35 69.8995 35C73.4533 35 76.8615 33.5882 79.3744 31.0753L87.5753 22.8744C90.0882 20.3615 91.5 16.9533 91.5 13.3995C91.5 5.99916 85.5009 0 78.1005 0C74.5467 0 71.1385 1.41173 68.6256 3.92462L46.4247 26.1256Z" fill="#394149"/>
</g>
<defs>
<clipPath id="clip0_59_8">
<rect width="91" height="35" fill="white" transform="translate(0.5)"/>
</clipPath>
</defs>
</svg>
