<svg width="50.000000" height="50.000000" viewBox="0 0 50 50" fill="none" xmlns="http://www.w3.org/2000/svg" xmlns:xlink="http://www.w3.org/1999/xlink">
	<path id="Vector" d="M24.97 0C28.43 0 31.68 0.65 34.7 1.97C37.73 3.28 40.38 5.06 42.65 7.31C44.92 9.56 46.71 12.2 48.02 15.23C49.34 18.25 50 21.5 50 24.97C50 28.43 49.34 31.68 48.02 34.7C46.71 37.73 44.92 40.38 42.65 42.65C40.38 44.92 37.73 46.71 34.7 48.02C31.68 49.34 28.43 50 24.97 50C21.5 50 18.25 49.34 15.23 48.02C12.2 46.71 9.56 44.92 7.31 42.65C5.06 40.38 3.28 37.73 1.97 34.7C0.65 31.68 0 28.43 0 24.97C0 21.5 0.65 18.25 1.97 15.23C3.28 12.2 5.06 9.56 7.31 7.31C9.56 5.06 12.2 3.28 15.23 1.97C18.25 0.65 21.5 0 24.97 0ZM37.39 19.59C38.55 18.71 39.56 17.66 40.44 16.42C39.88 16.66 39.31 16.86 38.73 17.02C38.16 17.18 37.55 17.3 36.91 17.38C37.55 16.98 38.11 16.49 38.59 15.91C39.06 15.34 39.4 14.71 39.6 14.03C39 14.35 38.39 14.64 37.75 14.9C37.11 15.16 36.45 15.35 35.78 15.47C35.22 14.91 34.56 14.45 33.81 14.09C33.05 13.73 32.21 13.56 31.3 13.56C30.46 13.56 29.67 13.71 28.94 14.03C28.2 14.35 27.56 14.79 27.03 15.35C26.49 15.91 26.06 16.55 25.74 17.29C25.42 18.03 25.26 18.81 25.26 19.65C25.26 19.89 25.27 20.13 25.29 20.37C25.31 20.6 25.34 20.82 25.38 21.02C22.87 20.9 20.54 20.29 18.39 19.17C16.24 18.06 14.41 16.56 12.9 14.69C12.34 15.61 12.06 16.62 12.06 17.74C12.06 18.77 12.31 19.74 12.81 20.63C13.31 21.53 13.95 22.26 14.75 22.81C13.71 22.74 12.8 22.48 12 22.04L12 22.1C12 23.61 12.47 24.92 13.41 26.01C14.34 27.11 15.51 27.79 16.9 28.07C16.62 28.15 16.35 28.21 16.09 28.25C15.84 28.29 15.57 28.31 15.29 28.31C15.09 28.31 14.9 28.3 14.72 28.28C14.54 28.26 14.35 28.23 14.15 28.19C14.55 29.39 15.26 30.38 16.27 31.18C17.29 31.97 18.47 32.37 19.83 32.37C18.79 33.21 17.63 33.86 16.33 34.31C15.04 34.77 13.69 35 12.3 35C12.02 35 11.76 34.99 11.52 34.97C11.29 34.95 11.05 34.92 10.81 34.88C12.16 35.76 13.63 36.43 15.2 36.91C16.77 37.39 18.41 37.63 20.13 37.63C22.91 37.63 25.38 37.1 27.53 36.05C29.68 34.99 31.49 33.64 32.94 31.98C34.39 30.33 35.5 28.48 36.26 26.43C37.01 24.38 37.39 22.36 37.39 20.37L37.39 19.59Z" fill="#FFFFFF" fill-opacity="1.000000" fill-rule="nonzero"/>
</svg>
