<svg width="50.000000" height="50.000000" viewBox="0 0 50 50" fill="none" xmlns="http://www.w3.org/2000/svg" xmlns:xlink="http://www.w3.org/1999/xlink">
	<path id="Vector" d="M24.97 0C28.42 0 31.67 0.65 34.71 1.96C37.75 3.27 40.4 5.06 42.66 7.33C44.93 9.59 46.72 12.23 48.03 15.25C49.34 18.27 50 21.51 50 24.97C50 28.42 49.34 31.67 48.03 34.71C46.72 37.75 44.93 40.4 42.66 42.66C40.4 44.93 37.75 46.72 34.71 48.03C31.67 49.34 28.42 50 24.97 50C21.51 50 18.27 49.34 15.25 48.03C12.23 46.72 9.59 44.93 7.33 42.66C5.06 40.4 3.27 37.75 1.96 34.71C0.65 31.67 0 28.42 0 24.97C0 21.51 0.65 18.27 1.96 15.25C3.27 12.23 5.06 9.59 7.33 7.33C9.59 5.06 12.23 3.27 15.25 1.96C18.27 0.65 21.51 0 24.97 0ZM34.38 10.9L29.08 10.9C28.04 10.9 27.09 11.08 26.22 11.44C25.34 11.79 24.58 12.27 23.92 12.87C23.27 13.46 22.76 14.14 22.4 14.89C22.05 15.65 21.87 16.4 21.87 17.16L21.87 20.32L17.16 20.32L17.16 26.51L21.87 26.51L21.87 39.03L28.12 39.03L28.12 26.51L32.77 26.51L32.77 20.32L28.12 20.32L28.12 18.71C28.12 18.23 28.31 17.85 28.69 17.58C29.07 17.3 29.4 17.16 29.67 17.16L34.38 17.16L34.38 10.9Z" fill="#FFFFFF" fill-opacity="1.000000" fill-rule="nonzero"/>
</svg>
