<svg width="50.000000" height="50.000000" viewBox="0 0 50 50" fill="none" xmlns="http://www.w3.org/2000/svg" xmlns:xlink="http://www.w3.org/1999/xlink">
	<path id="Vector" d="M24.97 0C28.43 0 31.68 0.65 34.7 1.97C37.73 3.28 40.38 5.06 42.65 7.31C44.92 9.56 46.71 12.2 48.02 15.23C49.34 18.25 50 21.5 50 24.97C50 28.43 49.34 31.68 48.02 34.7C46.71 37.73 44.92 40.38 42.65 42.65C40.38 44.92 37.73 46.71 34.7 48.02C31.68 49.34 28.43 50 24.97 50C21.5 50 18.25 49.34 15.23 48.02C12.2 46.71 9.56 44.92 7.31 42.65C5.06 40.38 3.28 37.73 1.97 34.7C0.65 31.68 0 28.43 0 24.97C0 21.5 0.65 18.25 1.97 15.23C3.28 12.2 5.06 9.56 7.31 7.31C9.56 5.06 12.2 3.28 15.23 1.97C18.25 0.65 21.5 0 24.97 0ZM24.97 39.06C26.92 39.06 28.75 38.69 30.46 37.96C32.17 37.22 33.67 36.22 34.94 34.94C36.22 33.67 37.22 32.17 37.96 30.46C38.69 28.75 39.06 26.92 39.06 24.97C39.06 23.01 38.69 21.19 37.96 19.5C37.22 17.81 36.22 16.32 34.94 15.05C33.67 13.77 32.17 12.77 30.46 12.03C28.75 11.3 26.92 10.93 24.97 10.93C23.05 10.93 21.24 11.3 19.53 12.03C17.82 12.77 16.32 13.77 15.05 15.05C13.77 16.32 12.77 17.81 12.03 19.5C11.3 21.19 10.93 23.01 10.93 24.97C10.93 26.92 11.3 28.75 12.03 30.46C12.77 32.17 13.77 33.67 15.05 34.94C16.32 36.22 17.82 37.22 19.53 37.96C21.24 38.69 23.05 39.06 24.97 39.06ZM26.16 25.38C24.13 26.06 22.29 27.04 20.63 28.31C18.98 29.58 17.56 31.12 16.36 32.91C14.49 30.84 13.46 28.37 13.26 25.5C13.58 25.54 13.86 25.56 14.12 25.56L14.93 25.56C18.59 25.56 22.1 24.95 25.44 23.71L25.8 24.55L26.16 25.38ZM27.65 22.81C30.16 21.7 32.49 20.23 34.64 18.39C36 20.35 36.67 22.52 36.67 24.91C35.16 24.55 33.69 24.37 32.25 24.37C30.94 24.37 29.66 24.51 28.43 24.79C28.31 24.47 28.19 24.14 28.07 23.8C27.95 23.46 27.81 23.13 27.65 22.81ZM18.16 34.52C19.19 32.85 20.46 31.43 21.98 30.25C23.49 29.08 25.14 28.19 26.94 27.59C27.37 28.95 27.73 30.33 28.01 31.75C28.29 33.16 28.51 34.6 28.67 36.08C27.51 36.47 26.28 36.67 24.97 36.67C22.46 36.67 20.19 35.96 18.16 34.52ZM29.21 27C30.32 26.8 31.34 26.7 32.25 26.7C33.73 26.7 35.12 26.9 36.43 27.29C36.12 28.93 35.48 30.42 34.52 31.78C33.57 33.13 32.37 34.22 30.94 35.06C30.66 32.35 30.08 29.66 29.21 27ZM33.15 16.6C32.11 17.44 31.06 18.2 29.98 18.9C28.91 19.6 27.79 20.21 26.64 20.72C25.96 19.49 25.23 18.28 24.46 17.11C23.68 15.93 22.83 14.79 21.92 13.67C22.87 13.4 23.89 13.26 24.97 13.26C26.52 13.26 27.99 13.55 29.39 14.12C30.78 14.7 32.03 15.53 33.15 16.6ZM24.43 21.62C21.36 22.7 18.19 23.23 14.93 23.23L14.12 23.23L13.44 23.17C13.71 21.34 14.39 19.67 15.47 18.16C16.54 16.64 17.92 15.45 19.59 14.57C21.46 16.72 23.07 19.07 24.43 21.62Z" fill="#FFFFFF" fill-opacity="1.000000" fill-rule="nonzero"/>
</svg>
