<svg width="50.000000" height="50.000000" viewBox="0 0 50 50" fill="none" xmlns="http://www.w3.org/2000/svg" xmlns:xlink="http://www.w3.org/1999/xlink">
	<path id="Vector" d="M24.97 0C28.43 0 31.68 0.65 34.7 1.97C37.73 3.28 40.38 5.06 42.65 7.31C44.92 9.56 46.71 12.2 48.02 15.23C49.34 18.25 50 21.5 50 24.97C50 28.43 49.34 31.68 48.02 34.7C46.71 37.73 44.92 40.38 42.65 42.65C40.38 44.92 37.73 46.71 34.7 48.02C31.68 49.34 28.43 50 24.97 50C21.5 50 18.25 49.34 15.23 48.02C12.2 46.71 9.56 44.92 7.31 42.65C5.06 40.38 3.28 37.73 1.97 34.7C0.65 31.68 0 28.43 0 24.97C0 21.5 0.65 18.25 1.97 15.23C3.28 12.2 5.06 9.56 7.31 7.31C9.56 5.06 12.2 3.28 15.23 1.97C18.25 0.65 21.5 0 24.97 0ZM17.2 18.75L10.93 18.75L10.93 39.06L17.2 39.06L17.2 18.75ZM14.03 17.14C14.91 17.14 15.66 16.84 16.27 16.24C16.89 15.65 17.2 14.91 17.2 14.03C17.2 13.16 16.89 12.42 16.27 11.82C15.66 11.23 14.91 10.93 14.03 10.93C13.16 10.93 12.42 11.23 11.82 11.82C11.23 12.42 10.93 13.16 10.93 14.03C10.93 14.91 11.23 15.65 11.82 16.24C12.42 16.84 13.16 17.14 14.03 17.14ZM39.06 27.29C39.06 25.86 38.66 24.46 37.87 23.08C37.07 21.71 36.04 20.66 34.76 19.95C33.61 19.31 32.26 18.97 30.73 18.93C29.2 18.89 27.79 19.15 26.52 19.71L26.52 18.75L20.31 18.75L20.31 39.06L26.52 39.06L26.52 26.64L29.15 25.38C29.47 25.22 29.89 25.14 30.43 25.14C30.97 25.14 31.4 25.24 31.72 25.44C31.95 25.56 32.19 25.82 32.43 26.22C32.67 26.62 32.79 26.98 32.79 27.29L32.79 39.06L39.06 39.06L39.06 27.29Z" fill="#FFFFFF" fill-opacity="1.000000" fill-rule="nonzero"/>
</svg>
